<?xml version="1.0" encoding="UTF-8" standalone="no"?>
<!-- Created with Inkscape (http://www.inkscape.org/) -->

<svg
   version="1.1"
   id="svg1"
   width="494.90668"
   height="191.26666"
   viewBox="0 0 494.90668 191.26666"
   sodipodi:docname="imglogo-basic-color-nobg-cmyk.eps"
   xmlns:inkscape="http://www.inkscape.org/namespaces/inkscape"
   xmlns:sodipodi="http://sodipodi.sourceforge.net/DTD/sodipodi-0.dtd"
   xmlns="http://www.w3.org/2000/svg"
   xmlns:svg="http://www.w3.org/2000/svg">
  <defs
     id="defs1" />
  <sodipodi:namedview
     id="namedview1"
     pagecolor="#ffffff"
     bordercolor="#000000"
     borderopacity="0.25"
     inkscape:showpageshadow="2"
     inkscape:pageopacity="0.0"
     inkscape:pagecheckerboard="0"
     inkscape:deskcolor="#d1d1d1">
    <inkscape:page
       x="0"
       y="0"
       inkscape:label="1"
       id="page1"
       width="494.90668"
       height="191.26666"
       margin="0"
       bleed="0" />
  </sodipodi:namedview>
  <g
     id="g1"
     inkscape:groupmode="layer"
     inkscape:label="1">
    <path
       id="path1"
       d="M 128.203,0 H 1306.25 c 70.82,0 128.21,57.3945 128.21,128.203 V 1306.25 c 0,70.81 -57.39,128.2 -128.21,128.2 H 128.203 C 57.3984,1434.45 0,1377.06 0,1306.25 V 128.203 C 0,57.3945 57.3984,0 128.203,0 Z m 924.477,235.715 c 0,-15.422 -12.62,-28.039 -28.04,-28.039 H 409.809 c -15.414,0 -28.028,12.617 -28.028,28.039 v 56.055 c 0,15.418 12.614,28.035 28.028,28.035 h 614.831 c 15.42,0 28.04,-12.617 28.04,-28.035 z M 505.141,405.039 v 56.063 c 0,15.421 12.613,28.031 28.035,28.031 h 368.113 c 15.414,0 28.031,-12.61 28.031,-28.031 v -56.063 c 0,-15.418 -12.617,-28.035 -28.031,-28.035 H 533.176 c -15.422,0 -28.035,12.617 -28.035,28.035 z M 1192.27,166.563 h -56.06 c -15.37,0 -27.94,12.546 -28.02,27.902 h -0.01 c -0.25,209.258 -170.129,326.707 -363.805,441.508 l 111.547,63.601 c 75.332,-46.527 147.718,-96.426 207.478,-154.613 105.42,-102.676 156.75,-217.277 156.9,-350.359 0,-15.422 -12.61,-28.039 -28.03,-28.039 z M 381.785,1209.78 c 0,15.42 12.613,28.03 28.035,28.03 h 614.82 c 15.42,0 28.04,-12.61 28.04,-28.03 v -56.06 c 0,-15.42 -12.62,-28.03 -28.04,-28.03 H 409.82 c -15.422,0 -28.035,12.61 -28.035,28.03 z M 929.32,1040.45 v -56.059 c 0,-15.422 -12.617,-28.036 -28.031,-28.036 H 533.176 c -15.422,0 -28.035,12.614 -28.035,28.036 v 56.059 c 0,15.42 12.613,28.03 28.035,28.03 h 368.113 c 15.414,0 28.031,-12.61 28.031,-28.03 z M 214.16,1240 h 0.012 c 0.074,15.35 12.644,27.89 28.012,27.89 h 56.07 c 15.418,0 28.031,-12.62 28.031,-28.03 -0.254,-209.29 169.516,-326.762 363.153,-441.563 L 579.934,733.438 C 503.871,780.332 430.738,830.621 370.508,889.348 265.176,992.043 214.031,1106.7 214.16,1239.86 h -0.012 c 0,0.02 0.012,0.03 0.012,0.04 0,0.03 0,0.06 0,0.1 z m 0,-1045.398 c -0.129,133.164 51.016,247.812 156.344,350.503 88.707,86.489 205.363,154.696 318.191,220.657 C 904.277,891.809 1107.91,1010.86 1108.18,1240 h 0.01 c 0.08,15.35 12.65,27.89 28.03,27.89 h 56.07 c 15.41,0 28.03,-12.62 28.03,-28.03 C 1220.15,1106.77 1168.83,992.156 1063.4,889.496 974.648,803.063 858.047,734.895 745.289,668.965 529.668,542.898 326,423.828 326.285,194.602 c 0,-15.422 -12.613,-28.039 -28.031,-28.039 h -56.07 c -15.368,0 -27.938,12.539 -28.012,27.902 h -0.012 c 0,0.027 0,0.055 0,0.086 0,0.008 -0.012,0.031 -0.012,0.051 h 0.012"
       style="fill:#0e88d3;fill-opacity:1;fill-rule:nonzero;stroke:none"
       transform="matrix(0.13333333,0,0,-0.13333333,0,191.26667)" />
    <path
       id="path2"
       d="m 1808.87,203.762 c 0,-22.59 -6.46,-32.297 -29.04,-32.297 h -98.47 c -20.98,0 -29.05,9.707 -29.05,32.297 V 1236.76 c 0,22.6 8.07,32.28 29.05,32.28 h 98.47 c 22.58,0 29.04,-9.68 29.04,-32.28 V 203.762"
       style="fill:#f03c22;fill-opacity:1;fill-rule:nonzero;stroke:none"
       transform="matrix(0.13333333,0,0,-0.13333333,0,191.26667)" />
    <path
       id="path3"
       d="m 2874.12,202.16 c 0,-20.988 -8.06,-30.695 -29.07,-30.695 h -95.21 c -20.98,0 -29.06,9.707 -29.06,30.695 v 740.828 c -3.22,-8.054 -24.19,-82.312 -38.73,-119.429 L 2494.82,370.012 c -8.07,-20.977 -20.99,-32.285 -40.34,-32.285 h -83.94 c -20.99,0 -30.66,12.91 -38.74,32.285 l -200.14,472.922 c -16.15,35.5 -29.06,92 -30.68,96.839 V 202.16 c 0,-20.988 -8.07,-30.695 -29.04,-30.695 h -90.39 c -21,0 -29.05,9.707 -29.05,30.695 v 1036.22 c 0,20.98 8.05,30.66 29.05,30.66 h 90.39 c 14.51,0 22.58,-6.45 27.44,-17.74 l 279.23,-648.859 c 11.29,-27.445 32.28,-90.39 33.89,-96.843 1.62,6.453 24.2,67.781 35.51,95.222 l 274.38,653.7 c 4.86,11.29 12.94,14.52 27.45,14.52 h 95.21 c 21.01,0 29.07,-9.68 29.07,-30.66 V 202.16"
       style="fill:#f03c22;fill-opacity:1;fill-rule:nonzero;stroke:none"
       transform="matrix(0.13333333,0,0,-0.13333333,0,191.26667)" />
    <path
       id="path4"
       d="m 3681.08,720.254 c 21.01,0 30.69,-8.066 30.69,-29.051 V 407.129 c 0,-132.356 -79.09,-248.555 -356.72,-248.555 -277.61,0 -356.69,116.199 -356.69,248.555 v 626.251 c 0,132.37 79.08,248.58 356.69,248.58 277.63,0 356.72,-116.21 356.72,-248.58 v -71.001 c 0,-20.988 -8.06,-30.668 -29.05,-30.668 h -93.59 c -22.62,0 -30.7,9.68 -30.7,30.668 v 45.181 c 0,87.16 -56.49,140.43 -201.75,140.43 -145.27,0 -200.14,-53.27 -200.14,-140.43 V 432.969 c 0,-87.16 54.87,-140.43 200.14,-140.43 143.64,0 201.75,51.641 201.75,138.789 v 154.973 h -192.07 c -20.97,0 -30.67,8.058 -30.67,30.656 v 74.246 c 0,20.985 9.7,29.051 30.67,29.051 h 314.72"
       style="fill:#f03c22;fill-opacity:1;fill-rule:nonzero;stroke:none"
       transform="matrix(0.13333333,0,0,-0.13333333,0,191.26667)" />
  </g>
</svg>
