<?xml version="1.0" encoding="UTF-8" standalone="no"?>
<svg
   version="1.0"
   width="340mm"
   height="58mm"
   id="svg60"
   sodipodi:docname="imglogo-name-en-left-color-rgb.emf"
   xmlns:inkscape="http://www.inkscape.org/namespaces/inkscape"
   xmlns:sodipodi="http://sodipodi.sourceforge.net/DTD/sodipodi-0.dtd"
   xmlns="http://www.w3.org/2000/svg"
   xmlns:svg="http://www.w3.org/2000/svg">
  <sodipodi:namedview
     id="namedview60"
     pagecolor="#ffffff"
     bordercolor="#000000"
     borderopacity="0.25"
     inkscape:showpageshadow="2"
     inkscape:pageopacity="0.0"
     inkscape:pagecheckerboard="0"
     inkscape:deskcolor="#d1d1d1"
     inkscape:document-units="mm" />
  <defs
     id="defs1">
    <clipPath
       clipPathUnits="userSpaceOnUse"
       id="clipEmfPath1">
      <path
         d="  M -0.55999585,-19.919852   L 1284.0705,-19.919852   L 1284.0705,218.39838   L -0.55999585,218.39838   z"
         id="path1" />
    </clipPath>
    <pattern
       id="EMFhbasepattern"
       patternUnits="userSpaceOnUse"
       width="6"
       height="6"
       x="0"
       y="0" />
  </defs>
  <path
     style="fill:#0089cf;fill-rule:nonzero;fill-opacity:1;stroke:none;"
     clip-path="url(#clipEmfPath1)"
     d="  M 19.519855,112.95916   C 19.519855,100.79925 24.159821,90.39933 33.75975,81.0394   C 41.83969,73.119458 52.479611,66.879505 62.719535,60.879549   C 82.39939,49.439634 100.95925,38.559714 100.95925,17.679869   C 100.95925,16.319879 102.15924,15.119888 103.51923,15.119888   L 108.6392,15.119888   C 110.07918,15.119888 111.19918,16.319879 111.19918,17.679869   C 111.19918,29.839779 106.47921,40.239702 96.879282,49.599633   C 88.799342,57.519574 78.159421,63.679528 67.919497,69.759483   C 48.239643,81.199399 29.67978,92.079318 29.67978,112.95916   C 29.67978,114.39915 28.559788,115.51914 27.199799,115.51914   L 22.079836,115.51914   C 20.639847,115.51914 19.519855,114.39915 19.519855,112.95916   z  M 19.519855,17.679869   L 19.519855,17.679869   C 19.519855,16.319879 20.639847,15.119888 22.079836,15.119888   L 27.199799,15.119888   C 28.559788,15.119888 29.67978,16.319879 29.67978,17.679869   C 29.67978,36.799727 45.199665,47.439649 62.799535,57.919571   L 52.799609,63.839527   C 45.91966,59.599559 39.19971,54.959593 33.75975,49.599633   C 24.159821,40.319701 19.519855,29.839779 19.519855,17.679869   z  M 84.639373,35.839735   L 84.639373,40.959697   C 84.639373,42.399686 83.519381,43.519678 82.159391,43.519678   L 48.55964,43.519678   C 47.19965,43.519678 45.999659,42.399686 45.999659,40.959697   L 45.999659,35.839735   C 45.999659,34.479745 47.19965,33.279753 48.55964,33.279753   L 82.159391,33.279753   C 83.519381,33.279753 84.639373,34.479745 84.639373,35.839735   z  M 34.799742,20.399849   C 34.799742,19.039859 35.919734,17.919867 37.359723,17.919867   L 93.359308,17.919867   C 94.799298,17.919867 95.919289,19.039859 95.919289,20.399849   L 95.919289,25.519811   C 95.919289,26.9598 94.799298,28.079792 93.359308,28.079792   L 37.359723,28.079792   C 35.919734,28.079792 34.799742,26.9598 34.799742,25.519811   z  M 108.6392,115.51914   L 103.51923,115.51914   C 102.15924,115.51914 100.95925,114.39915 100.95925,112.95916   C 100.95925,93.919304 85.439367,83.199384 67.839497,72.719461   L 77.999422,66.959504   C 84.879371,71.199473 91.439323,75.759439 96.879282,81.0394   C 106.47921,90.39933 111.19918,100.79925 111.19918,112.95916   C 111.19918,114.39915 110.07918,115.51914 108.6392,115.51914   z  M 45.999659,93.759305   L 45.999659,88.639343   C 45.999659,87.279353 47.19965,86.079362 48.55964,86.079362   L 82.159391,86.079362   C 83.519381,86.079362 84.639373,87.279353 84.639373,88.639343   L 84.639373,93.759305   C 84.639373,95.199295 83.519381,96.319287 82.159391,96.319287   L 48.55964,96.319287   C 47.19965,96.319287 45.999659,95.199295 45.999659,93.759305   z  M 95.919289,109.19919   C 95.919289,110.63918 94.799298,111.75917 93.359308,111.75917   L 37.359723,111.75917   C 35.919734,111.75917 34.799742,110.63918 34.799742,109.19919   L 34.799742,104.07923   C 34.799742,102.71924 35.919734,101.51925 37.359723,101.51925   L 93.359308,101.51925   C 94.799298,101.51925 95.919289,102.71924 95.919289,104.07923   z  M 11.679913,130.71903   L 119.03912,130.71903   C 125.51907,130.71903 130.71903,125.43907 130.71903,119.03912   L 130.71903,11.679913   C 130.71903,5.1999615 125.51907,0 119.03912,0   L 11.679913,0   C 5.1999615,0 0,5.1999615 0,11.679913   L 0,119.03912   C 0,125.43907 5.1999615,130.71903 11.679913,130.71903   z "
     id="path2" />
  <path
     style="fill:#f04e26;fill-rule:nonzero;fill-opacity:1;stroke:none;"
     clip-path="url(#clipEmfPath1)"
     d="  M 164.79878,112.15917   C 164.79878,114.15915 164.23878,115.03915 162.1588,115.03915   L 153.19887,115.03915   C 151.27888,115.03915 150.55888,114.15915 150.55888,112.15917   L 150.55888,17.999867   C 150.55888,15.919882 151.27888,15.039889 153.19887,15.039889   L 162.1588,15.039889   C 164.23878,15.039889 164.79878,15.919882 164.79878,17.999867   z "
     id="path3" />
  <path
     style="fill:#f04e26;fill-rule:nonzero;fill-opacity:1;stroke:none;"
     clip-path="url(#clipEmfPath1)"
     d="  M 261.91806,112.23917   C 261.91806,114.15915 261.19807,115.03915 259.27808,115.03915   L 250.55814,115.03915   C 248.63816,115.03915 247.91816,114.15915 247.91816,112.23917   L 247.91816,44.719669   C 247.67817,45.519663 245.75818,52.239613 244.39819,55.599588   L 227.35832,96.959282   C 226.63832,98.879268 225.43833,99.91926 223.67834,99.91926   L 215.9984,99.91926   C 214.07841,99.91926 213.19842,98.719269 212.47843,96.959282   L 194.23856,53.839601   C 192.79857,50.639625 191.59858,45.519663 191.43858,45.039666   L 191.43858,112.23917   C 191.43858,114.15915 190.71859,115.03915 188.7986,115.03915   L 180.55866,115.03915   C 178.63868,115.03915 177.91868,114.15915 177.91868,112.23917   L 177.91868,17.839868   C 177.91868,15.919882 178.63868,15.039889 180.55866,15.039889   L 188.7986,15.039889   C 190.15859,15.039889 190.87859,15.599884 191.27858,16.639877   L 216.71839,75.759439   C 217.75839,78.31942 219.67837,83.999378 219.83837,84.639373   C 219.99837,83.999378 222.07835,78.399419 223.11835,75.919438   L 248.07816,16.319879   C 248.55816,15.359886 249.27815,15.039889 250.55814,15.039889   L 259.27808,15.039889   C 261.19807,15.039889 261.91806,15.919882 261.91806,17.839868   z "
     id="path4" />
  <path
     style="fill:#f04e26;fill-rule:nonzero;fill-opacity:1;stroke:none;"
     clip-path="url(#clipEmfPath1)"
     d="  M 335.43752,65.039518   C 337.3575,65.039518 338.23749,65.759513 338.23749,67.679499   L 338.23749,93.599307   C 338.23749,105.67922 331.03755,116.23914 305.75774,116.23914   C 280.47792,116.23914 273.19798,105.67922 273.19798,93.599307   L 273.19798,36.47973   C 273.19798,24.479819 280.47792,13.839897 305.75774,13.839897   C 331.03755,13.839897 338.23749,24.479819 338.23749,36.47973   L 338.23749,42.959682   C 338.23749,44.879668 337.5175,45.759661 335.59751,45.759661   L 327.03758,45.759661   C 325.03759,45.759661 324.3176,44.879668 324.3176,42.959682   L 324.3176,38.879712   C 324.3176,30.959771 319.11764,26.079807 305.91773,26.079807   C 292.63783,26.079807 287.67787,30.959771 287.67787,38.879712   L 287.67787,91.199324   C 287.67787,99.199265 292.63783,103.99923 305.91773,103.99923   C 318.95764,103.99923 324.3176,99.359264 324.3176,91.359323   L 324.3176,77.279428   L 306.79773,77.279428   C 304.87774,77.279428 303.99775,76.559433 303.99775,74.479448   L 303.99775,67.679499   C 303.99775,65.759513 304.87774,65.039518 306.79773,65.039518   z "
     id="path5" />
  <path
     style="fill:#0089cf;fill-rule:nonzero;fill-opacity:1;stroke:none;"
     clip-path="url(#clipEmfPath1)"
     d="  M 3.3599751,207.19847   C 3.3599751,207.67846 3.1999763,207.91846 2.7199799,207.91846   L 0.71999467,207.91846   C 0.23999822,207.91846 0,207.67846 0,207.19847   L 0,175.9987   C 0,175.5187 0.23999822,175.2787 0.71999467,175.2787   L 2.7199799,175.2787   C 3.1999763,175.2787 3.3599751,175.5187 3.3599751,175.9987   z "
     id="path6" />
  <path
     style="fill:#0089cf;fill-rule:nonzero;fill-opacity:1;stroke:none;"
     clip-path="url(#clipEmfPath1)"
     d="  M 14.479893,184.87863   L 14.559892,186.71862   C 15.919882,185.59863 18.719861,183.75864 22.799831,183.75864   C 27.199799,183.75864 29.359783,186.31862 29.359783,189.67859   L 29.359783,207.19847   C 29.359783,207.67846 29.199784,207.91846 28.719787,207.91846   L 26.799801,207.91846   C 26.319805,207.91846 26.079807,207.67846 26.079807,207.19847   L 26.079807,190.39859   C 26.079807,188.23861 24.959815,186.79862 21.839838,186.79862   C 18.319864,186.79862 15.679884,188.5586 14.639892,189.4386   L 14.639892,207.19847   C 14.639892,207.67846 14.399893,207.91846 13.919897,207.91846   L 11.999911,207.91846   C 11.519915,207.91846 11.279916,207.67846 11.279916,207.19847   L 11.279916,184.87863   C 11.279916,184.39863 11.519915,184.15864 11.999911,184.15864   L 13.759898,184.15864   C 14.239895,184.15864 14.399893,184.39863 14.479893,184.87863   z "
     id="path7" />
  <path
     style="fill:#0089cf;fill-rule:nonzero;fill-opacity:1;stroke:none;"
     clip-path="url(#clipEmfPath1)"
     d="  M 49.279635,189.2786   C 49.279635,187.35861 47.599647,186.31862 43.999674,186.31862   C 40.399701,186.31862 38.719713,187.35861 38.719713,189.2786   L 38.719713,190.47859   C 38.719713,191.99858 40.159703,192.79857 41.199695,193.11857   L 48.55964,195.51855   C 50.959623,196.31855 52.719609,197.83853 52.719609,200.07852   L 52.719609,202.8785   C 52.719609,205.75848 50.159628,208.23846 43.999674,208.23846   C 37.75972,208.23846 35.279739,205.75848 35.279739,202.8785   L 35.279739,201.51851   C 35.279739,201.11851 35.519737,200.87851 35.999733,200.87851   L 37.75972,200.87851   C 38.239717,200.87851 38.399716,201.11851 38.399716,201.51851   L 38.399716,202.7185   C 38.399716,204.63848 40.319701,205.75848 43.999674,205.75848   C 47.599647,205.75848 49.679632,204.63848 49.679632,202.7185   L 49.679632,200.95851   C 49.679632,199.51852 48.479641,198.79853 46.799653,198.23853   L 39.439708,195.75855   C 37.75972,195.19855 35.759735,193.51857 35.759735,191.11858   L 35.759735,189.2786   C 35.759735,186.39862 37.919719,183.75864 43.999674,183.75864   C 50.159628,183.75864 52.399612,186.39862 52.399612,189.2786   L 52.399612,190.63859   C 52.399612,191.11858 52.159614,191.27858 51.679617,191.27858   L 49.91963,191.27858   C 49.519633,191.27858 49.279635,191.11858 49.279635,190.63859   z "
     id="path8" />
  <path
     style="fill:#0089cf;fill-rule:nonzero;fill-opacity:1;stroke:none;"
     clip-path="url(#clipEmfPath1)"
     d="  M 68.239495,184.23864   C 68.719491,184.23864 68.959489,184.47863 68.959489,184.95863   L 68.959489,186.31862   C 68.959489,186.79862 68.719491,187.03861 68.239495,187.03861   L 62.879534,187.03861   L 62.879534,201.35851   C 62.879534,203.59849 64.159525,205.03848 68.479493,205.03848   L 69.279487,205.03848   C 69.759483,205.03848 69.999481,205.27848 69.999481,205.75848   L 69.999481,207.19847   C 69.999481,207.67846 69.759483,207.91846 69.279487,207.91846   L 67.999496,207.91846   C 61.439545,207.91846 59.519559,205.59848 59.519559,201.67851   L 59.519559,187.03861   L 56.63958,187.03861   C 56.159584,187.03861 55.999585,186.79862 55.999585,186.31862   L 55.999585,185.11863   C 55.999585,184.63863 56.159584,184.47863 56.63958,184.39863   L 59.119562,184.23864   L 59.519559,184.23864   L 59.519559,179.19867   C 59.519559,178.71868 59.759557,178.47868 60.239554,178.47868   L 62.239539,178.47868   C 62.719535,178.47868 62.879534,178.71868 62.879534,179.19867   L 62.879534,184.23864   z "
     id="path9" />
  <path
     style="fill:#0089cf;fill-rule:nonzero;fill-opacity:1;stroke:none;"
     clip-path="url(#clipEmfPath1)"
     d="  M 78.23942,207.19847   C 78.23942,207.67846 78.079422,207.91846 77.599425,207.91846   L 75.679439,207.91846   C 75.119444,207.91846 74.959445,207.67846 74.959445,207.19847   L 74.959445,184.87863   C 74.959445,184.39863 75.119444,184.15864 75.679439,184.15864   L 77.599425,184.15864   C 78.079422,184.15864 78.23942,184.39863 78.23942,184.87863   z  M 78.23942,179.51867   C 78.23942,179.99867 78.079422,180.23866 77.599425,180.23866   L 75.679439,180.23866   C 75.119444,180.23866 74.959445,179.99867 74.959445,179.51867   L 74.959445,175.0387   C 74.959445,174.55871 75.119444,174.31871 75.679439,174.31871   L 77.599425,174.31871   C 78.079422,174.31871 78.23942,174.55871 78.23942,175.0387   z "
     id="path10" />
  <path
     style="fill:#0089cf;fill-rule:nonzero;fill-opacity:1;stroke:none;"
     clip-path="url(#clipEmfPath1)"
     d="  M 95.359294,184.23864   C 95.83929,184.23864 96.079288,184.47863 96.079288,184.95863   L 96.079288,186.31862   C 96.079288,186.79862 95.83929,187.03861 95.359294,187.03861   L 89.999333,187.03861   L 89.999333,201.35851   C 89.999333,203.59849 91.279324,205.03848 95.599292,205.03848   L 96.399286,205.03848   C 96.879282,205.03848 97.119281,205.27848 97.119281,205.75848   L 97.119281,207.19847   C 97.119281,207.67846 96.879282,207.91846 96.399286,207.91846   L 95.119295,207.91846   C 88.559344,207.91846 86.639358,205.59848 86.639358,201.67851   L 86.639358,187.03861   L 83.75938,187.03861   C 83.279383,187.03861 83.119384,186.79862 83.119384,186.31862   L 83.119384,185.11863   C 83.119384,184.63863 83.279383,184.47863 83.75938,184.39863   L 86.239361,184.23864   L 86.639358,184.23864   L 86.639358,179.19867   C 86.639358,178.71868 86.879356,178.47868 87.359353,178.47868   L 89.359338,178.47868   C 89.839335,178.47868 89.999333,178.71868 89.999333,179.19867   L 89.999333,184.23864   z "
     id="path11" />
  <path
     style="fill:#0089cf;fill-rule:nonzero;fill-opacity:1;stroke:none;"
     clip-path="url(#clipEmfPath1)"
     d="  M 116.31914,205.43848   C 115.03915,206.55847 112.47917,208.23846 108.4792,208.23846   C 103.99923,208.23846 101.75925,205.83848 101.75925,202.3985   L 101.75925,184.87863   C 101.75925,184.39863 101.99924,184.15864 102.47924,184.15864   L 104.39923,184.15864   C 104.87922,184.15864 105.11922,184.39863 105.11922,184.87863   L 105.11922,201.67851   C 105.11922,203.83849 106.31921,205.27848 109.35919,205.27848   C 112.87916,205.27848 115.19915,203.51849 116.23914,202.6385   L 116.23914,184.87863   C 116.23914,184.39863 116.47914,184.15864 116.95913,184.15864   L 118.87912,184.15864   C 119.35912,184.15864 119.59911,184.39863 119.59911,184.87863   L 119.59911,207.19847   C 119.59911,207.67846 119.35912,207.91846 118.87912,207.91846   L 117.11913,207.91846   C 116.63914,207.91846 116.47914,207.67846 116.39914,207.19847   z "
     id="path12" />
  <path
     style="fill:#0089cf;fill-rule:nonzero;fill-opacity:1;stroke:none;"
     clip-path="url(#clipEmfPath1)"
     d="  M 136.63899,184.23864   C 137.11898,184.23864 137.35898,184.47863 137.35898,184.95863   L 137.35898,186.31862   C 137.35898,186.79862 137.11898,187.03861 136.63899,187.03861   L 131.27903,187.03861   L 131.27903,201.35851   C 131.27903,203.59849 132.55902,205.03848 136.87899,205.03848   L 137.67898,205.03848   C 138.15898,205.03848 138.39897,205.27848 138.39897,205.75848   L 138.39897,207.19847   C 138.39897,207.67846 138.15898,207.91846 137.67898,207.91846   L 136.39899,207.91846   C 129.83904,207.91846 127.91905,205.59848 127.91905,201.67851   L 127.91905,187.03861   L 125.03907,187.03861   C 124.55908,187.03861 124.39908,186.79862 124.39908,186.31862   L 124.39908,185.11863   C 124.39908,184.63863 124.55908,184.47863 125.03907,184.39863   L 127.51906,184.23864   L 127.91905,184.23864   L 127.91905,179.19867   C 127.91905,178.71868 128.15905,178.47868 128.63905,178.47868   L 130.63903,178.47868   C 131.11903,178.47868 131.27903,178.71868 131.27903,179.19867   L 131.27903,184.23864   z "
     id="path13" />
  <path
     style="fill:#0089cf;fill-rule:nonzero;fill-opacity:1;stroke:none;"
     clip-path="url(#clipEmfPath1)"
     d="  M 145.75892,193.99856   L 156.95884,193.99856   L 156.95884,190.15859   C 156.95884,187.99861 155.59885,186.47862 151.35888,186.47862   C 147.03891,186.47862 145.75892,187.99861 145.75892,190.15859   z  M 160.07881,195.91855   C 160.07881,196.31855 159.83882,196.55854 159.35882,196.55854   L 145.75892,196.55854   L 145.75892,201.9185   C 145.75892,204.07849 146.95891,205.59848 151.35888,205.59848   C 155.75885,205.59848 156.95884,204.07849 156.95884,201.9185   L 156.95884,201.03851   C 156.95884,200.55851 157.11884,200.39852 157.59883,200.39852   L 159.35882,200.39852   C 159.83882,200.39852 160.07881,200.55851 160.07881,201.03851   L 160.07881,202.0785   C 160.07881,205.75848 157.91883,208.23846 151.27888,208.23846   C 144.71893,208.23846 142.55894,205.75848 142.55894,202.0785   L 142.55894,189.99859   C 142.55894,186.31862 144.71893,183.75864 151.35888,183.75864   C 157.91883,183.75864 160.07881,186.31862 160.07881,189.99859   z "
     id="path14" />
  <path
     style="fill:#0089cf;fill-rule:nonzero;fill-opacity:1;stroke:none;"
     clip-path="url(#clipEmfPath1)"
     d="  M 191.19858,190.23859   C 191.19858,187.99861 189.67859,186.55862 185.43863,186.55862   C 181.19866,186.55862 179.75867,187.99861 179.75867,190.23859   L 179.75867,201.8385   C 179.75867,204.07849 181.19866,205.51848 185.43863,205.51848   C 189.67859,205.51848 191.19858,204.07849 191.19858,201.8385   z  M 176.39869,189.99859   C 176.39869,186.31862 178.87867,183.75864 185.43863,183.75864   C 191.99858,183.75864 194.47856,186.31862 194.47856,189.99859   L 194.47856,202.0785   C 194.47856,205.75848 191.99858,208.23846 185.43863,208.23846   C 178.87867,208.23846 176.39869,205.75848 176.39869,202.0785   z "
     id="path15" />
  <path
     style="fill:#0089cf;fill-rule:nonzero;fill-opacity:1;stroke:none;"
     clip-path="url(#clipEmfPath1)"
     d="  M 202.5585,184.23864   L 202.5585,180.15867   C 202.5585,176.47869 204.95848,173.99871 211.51843,173.99871   L 211.75843,173.99871   C 212.23843,173.99871 212.47843,174.15871 212.47843,174.63871   L 212.47843,176.0787   C 212.47843,176.55869 212.23843,176.79869 211.75843,176.79869   L 211.51843,176.79869   C 207.19847,176.79869 205.91847,178.23868 205.91847,180.47866   L 205.91847,184.23864   L 211.11844,184.23864   C 211.59843,184.23864 211.83843,184.47863 211.83843,184.95863   L 211.83843,186.31862   C 211.83843,186.79862 211.59843,187.03861 211.11844,187.03861   L 205.91847,187.03861   L 205.91847,207.19847   C 205.91847,207.67846 205.67848,207.91846 205.19848,207.91846   L 203.27849,207.91846   C 202.7985,207.91846 202.5585,207.67846 202.5585,207.19847   L 202.5585,187.03861   L 199.51852,187.03861   C 199.03853,187.03861 198.87853,186.79862 198.87853,186.31862   L 198.87853,185.11863   C 198.87853,184.63863 199.03853,184.47863 199.51852,184.39863   L 202.1585,184.23864   z "
     id="path16" />
  <path
     style="fill:#0089cf;fill-rule:nonzero;fill-opacity:1;stroke:none;"
     clip-path="url(#clipEmfPath1)"
     d="  M 253.75812,207.19847   C 253.75812,207.67846 253.59812,207.91846 253.03813,207.91846   L 251.11814,207.91846   C 250.63814,207.91846 250.39815,207.67846 250.39815,207.19847   L 250.39815,182.39865   C 250.23815,183.19864 249.83815,184.63863 249.43815,185.35863   L 242.4782,202.1585   C 242.31821,202.6385 241.99821,202.8785 241.51821,202.8785   L 239.75822,202.8785   C 239.27823,202.8785 239.03823,202.6385 238.87823,202.1585   L 231.59828,184.95863   C 231.43829,184.47863 231.11829,183.51864 230.79829,182.47865   L 230.79829,207.19847   C 230.79829,207.67846 230.63829,207.91846 230.1583,207.91846   L 228.31831,207.91846   C 227.75831,207.91846 227.59831,207.67846 227.59831,207.19847   L 227.59831,175.9987   C 227.59831,175.5187 227.75831,175.2787 228.31831,175.2787   L 230.1583,175.2787   C 230.47829,175.2787 230.63829,175.3587 230.71829,175.5987   L 239.83822,196.87854   C 240.31822,197.99853 240.63822,199.11853 240.71822,199.27852   C 240.71822,199.11853 241.19821,197.83853 241.59821,196.87854   L 250.47814,175.5987   C 250.55814,175.3587 250.79814,175.2787 251.11814,175.2787   L 253.03813,175.2787   C 253.59812,175.2787 253.75812,175.5187 253.75812,175.9987   z "
     id="path17" />
  <path
     style="fill:#0089cf;fill-rule:nonzero;fill-opacity:1;stroke:none;"
     clip-path="url(#clipEmfPath1)"
     d="  M 275.91796,190.23859   C 275.91796,187.99861 274.39797,186.55862 270.158,186.55862   C 265.91803,186.55862 264.47804,187.99861 264.47804,190.23859   L 264.47804,201.8385   C 264.47804,204.07849 265.91803,205.51848 270.158,205.51848   C 274.39797,205.51848 275.91796,204.07849 275.91796,201.8385   z  M 261.11807,189.99859   C 261.11807,186.31862 263.59805,183.75864 270.158,183.75864   C 276.71795,183.75864 279.19793,186.31862 279.19793,189.99859   L 279.19793,202.0785   C 279.19793,205.75848 276.71795,208.23846 270.158,208.23846   C 263.59805,208.23846 261.11807,205.75848 261.11807,202.0785   z "
     id="path18" />
  <path
     style="fill:#0089cf;fill-rule:nonzero;fill-opacity:1;stroke:none;"
     clip-path="url(#clipEmfPath1)"
     d="  M 289.35786,207.19847   C 289.35786,207.67846 289.19786,207.91846 288.71786,207.91846   L 286.79788,207.91846   C 286.23788,207.91846 286.07788,207.67846 286.07788,207.19847   L 286.07788,175.0387   C 286.07788,174.55871 286.23788,174.31871 286.79788,174.31871   L 288.71786,174.31871   C 289.19786,174.31871 289.35786,174.55871 289.35786,175.0387   z "
     id="path19" />
  <path
     style="fill:#0089cf;fill-rule:nonzero;fill-opacity:1;stroke:none;"
     clip-path="url(#clipEmfPath1)"
     d="  M 299.51778,193.99856   L 310.6377,193.99856   L 310.6377,190.15859   C 310.6377,187.99861 309.27771,186.47862 305.03774,186.47862   C 300.71777,186.47862 299.51778,187.99861 299.51778,190.15859   z  M 313.75768,195.91855   C 313.75768,196.31855 313.51768,196.55854 313.03768,196.55854   L 299.51778,196.55854   L 299.51778,201.9185   C 299.51778,204.07849 300.63777,205.59848 305.03774,205.59848   C 309.43771,205.59848 310.6377,204.07849 310.6377,201.9185   L 310.6377,201.03851   C 310.6377,200.55851 310.7977,200.39852 311.27769,200.39852   L 313.03768,200.39852   C 313.51768,200.39852 313.75768,200.55851 313.75768,201.03851   L 313.75768,202.0785   C 313.75768,205.75848 311.59769,208.23846 304.95774,208.23846   C 298.39779,208.23846 296.23781,205.75848 296.23781,202.0785   L 296.23781,189.99859   C 296.23781,186.31862 298.39779,183.75864 305.03774,183.75864   C 311.59769,183.75864 313.75768,186.31862 313.75768,189.99859   z "
     id="path20" />
  <path
     style="fill:#0089cf;fill-rule:nonzero;fill-opacity:1;stroke:none;"
     clip-path="url(#clipEmfPath1)"
     d="  M 337.0375,189.99859   L 337.0375,190.87859   C 337.0375,191.35858 336.8775,191.59858 336.31751,191.59858   L 334.55752,191.59858   C 334.07753,191.59858 333.83753,191.35858 333.83753,190.87859   L 333.83753,190.15859   C 333.83753,187.99861 332.63754,186.55862 328.39757,186.55862   C 324.0776,186.55862 322.87761,187.99861 322.87761,190.15859   L 322.87761,201.8385   C 322.87761,204.07849 324.0776,205.51848 328.39757,205.51848   C 332.63754,205.51848 333.83753,204.07849 333.83753,201.8385   L 333.83753,200.79851   C 333.83753,200.23852 334.07753,200.07852 334.55752,200.07852   L 336.31751,200.07852   C 336.8775,200.07852 337.0375,200.23852 337.0375,200.79851   L 337.0375,202.0785   C 337.0375,205.75848 334.87752,208.23846 328.31757,208.23846   C 321.67762,208.23846 319.59763,205.75848 319.59763,202.0785   L 319.59763,189.99859   C 319.59763,186.31862 321.75762,183.75864 328.31757,183.75864   C 334.87752,183.75864 337.0375,186.31862 337.0375,189.99859   z "
     id="path21" />
  <path
     style="fill:#0089cf;fill-rule:nonzero;fill-opacity:1;stroke:none;"
     clip-path="url(#clipEmfPath1)"
     d="  M 357.11735,205.43848   C 355.83736,206.55847 353.27738,208.23846 349.27741,208.23846   C 344.79745,208.23846 342.55746,205.83848 342.55746,202.3985   L 342.55746,184.87863   C 342.55746,184.39863 342.79746,184.15864 343.27746,184.15864   L 345.19744,184.15864   C 345.67744,184.15864 345.91744,184.39863 345.91744,184.87863   L 345.91744,201.67851   C 345.91744,203.83849 347.11743,205.27848 350.15741,205.27848   C 353.67738,205.27848 355.99736,203.51849 357.11735,202.6385   L 357.11735,184.87863   C 357.11735,184.39863 357.27735,184.15864 357.75735,184.15864   L 359.75734,184.15864   C 360.23733,184.15864 360.39733,184.39863 360.39733,184.87863   L 360.39733,207.19847   C 360.39733,207.67846 360.23733,207.91846 359.75734,207.91846   L 357.91735,207.91846   C 357.43735,207.91846 357.27735,207.67846 357.19735,207.19847   z "
     id="path22" />
  <path
     style="fill:#0089cf;fill-rule:nonzero;fill-opacity:1;stroke:none;"
     clip-path="url(#clipEmfPath1)"
     d="  M 371.03725,207.19847   C 371.03725,207.67846 370.87725,207.91846 370.39726,207.91846   L 368.47727,207.91846   C 367.91727,207.91846 367.75728,207.67846 367.75728,207.19847   L 367.75728,175.0387   C 367.75728,174.55871 367.91727,174.31871 368.47727,174.31871   L 370.39726,174.31871   C 370.87725,174.31871 371.03725,174.55871 371.03725,175.0387   z "
     id="path23" />
  <path
     style="fill:#0089cf;fill-rule:nonzero;fill-opacity:1;stroke:none;"
     clip-path="url(#clipEmfPath1)"
     d="  M 392.1571,202.7985   L 392.1571,197.19854   L 384.47715,197.19854   C 381.91717,197.19854 380.87718,198.55853 380.87718,200.63851   L 380.87718,202.1585   C 380.87718,204.31849 382.15717,205.51848 385.03715,205.51848   C 388.47712,205.51848 391.0371,203.67849 392.1571,202.7985   z  M 378.0772,189.91859   C 378.0772,186.31862 380.23718,183.75864 386.71714,183.75864   C 393.35709,183.75864 395.35707,186.31862 395.35707,189.91859   L 395.35707,207.19847   C 395.35707,207.67846 395.19707,207.91846 394.71708,207.91846   L 392.95709,207.91846   C 392.47709,207.91846 392.31709,207.67846 392.23709,207.19847   L 392.1571,205.43848   C 390.79711,206.55847 388.07713,208.23846 384.23715,208.23846   C 379.75719,208.23846 377.5972,205.75848 377.5972,202.6385   L 377.5972,200.23852   C 377.5972,197.11854 379.67719,194.55856 383.83716,194.55856   L 392.1571,194.55856   L 392.1571,190.23859   C 392.1571,188.07861 390.9571,186.55862 386.71714,186.55862   C 382.39717,186.55862 381.19718,187.99861 381.19718,190.15859   L 381.19718,190.71859   C 381.19718,191.19858 381.03718,191.43858 380.47718,191.43858   L 378.79719,191.43858   C 378.3172,191.43858 378.0772,191.19858 378.0772,190.71859   z "
     id="path24" />
  <path
     style="fill:#0089cf;fill-rule:nonzero;fill-opacity:1;stroke:none;"
     clip-path="url(#clipEmfPath1)"
     d="  M 414.31693,184.47863   L 414.31693,186.07862   C 414.31693,186.55862 414.07693,186.79862 413.59694,186.79862   C 409.99696,186.95862 406.87699,189.0386 405.75699,189.99859   L 405.75699,207.19847   C 405.75699,207.67846 405.597,207.91846 405.117,207.91846   L 403.19701,207.91846   C 402.63702,207.91846 402.47702,207.67846 402.47702,207.19847   L 402.47702,184.87863   C 402.47702,184.39863 402.63702,184.15864 403.19701,184.15864   L 404.877,184.15864   C 405.437,184.15864 405.597,184.39863 405.597,184.87863   L 405.75699,187.27861   C 407.11698,185.99862 409.99696,183.75864 413.59694,183.75864   C 414.07693,183.75864 414.31693,183.99864 414.31693,184.47863   z "
     id="path25" />
  <path
     style="fill:#0089cf;fill-rule:nonzero;fill-opacity:1;stroke:none;"
     clip-path="url(#clipEmfPath1)"
     d="  M 448.79668,192.15858   C 449.35667,192.15858 449.51667,192.39857 449.51667,192.87857   L 449.51667,201.27851   C 449.51667,205.11848 447.35669,208.23846 439.43674,208.23846   C 431.5168,208.23846 429.27682,205.11848 429.27682,201.27851   L 429.27682,181.83865   C 429.27682,177.99868 431.5168,174.8787 439.43674,174.8787   C 447.35669,174.8787 449.51667,177.99868 449.51667,181.83865   L 449.51667,184.15864   C 449.51667,184.63863 449.35667,184.87863 448.87667,184.87863   L 446.95669,184.87863   C 446.39669,184.87863 446.23669,184.63863 446.23669,184.15864   L 446.23669,182.39865   C 446.23669,179.59867 444.55671,177.75868 439.43674,177.75868   C 434.39678,177.75868 432.71679,179.59867 432.71679,182.39865   L 432.71679,200.71851   C 432.71679,203.51849 434.39678,205.35848 439.43674,205.35848   C 444.47671,205.35848 446.23669,203.59849 446.23669,200.79851   L 446.23669,195.11855   L 439.75674,195.11855   C 439.27675,195.11855 439.11675,194.87856 439.11675,194.39856   L 439.11675,192.87857   C 439.11675,192.39857 439.27675,192.15858 439.75674,192.15858   z "
     id="path26" />
  <path
     style="fill:#0089cf;fill-rule:nonzero;fill-opacity:1;stroke:none;"
     clip-path="url(#clipEmfPath1)"
     d="  M 458.9566,193.99856   L 470.15652,193.99856   L 470.15652,190.15859   C 470.15652,187.99861 468.79653,186.47862 464.55656,186.47862   C 460.23659,186.47862 458.9566,187.99861 458.9566,190.15859   z  M 473.19649,195.91855   C 473.19649,196.31855 473.0365,196.55854 472.5565,196.55854   L 458.9566,196.55854   L 458.9566,201.9185   C 458.9566,204.07849 460.15659,205.59848 464.55656,205.59848   C 468.95653,205.59848 470.15652,204.07849 470.15652,201.9185   L 470.15652,201.03851   C 470.15652,200.55851 470.31652,200.39852 470.79651,200.39852   L 472.4765,200.39852   C 473.0365,200.39852 473.19649,200.55851 473.19649,201.03851   L 473.19649,202.0785   C 473.19649,205.75848 471.03651,208.23846 464.47656,208.23846   C 457.91661,208.23846 455.75662,205.75848 455.75662,202.0785   L 455.75662,189.99859   C 455.75662,186.31862 457.91661,183.75864 464.55656,183.75864   C 471.11651,183.75864 473.19649,186.31862 473.19649,189.99859   z "
     id="path27" />
  <path
     style="fill:#0089cf;fill-rule:nonzero;fill-opacity:1;stroke:none;"
     clip-path="url(#clipEmfPath1)"
     d="  M 482.79642,184.87863   L 482.87642,186.71862   C 484.23641,185.59863 487.03639,183.75864 491.11636,183.75864   C 495.51633,183.75864 497.67631,186.31862 497.67631,189.67859   L 497.67631,207.19847   C 497.67631,207.67846 497.51631,207.91846 497.03632,207.91846   L 495.11633,207.91846   C 494.63634,207.91846 494.39634,207.67846 494.39634,207.19847   L 494.39634,190.39859   C 494.39634,188.23861 493.27635,186.79862 490.15637,186.79862   C 486.6364,186.79862 484.07641,188.5586 482.95642,189.4386   L 482.95642,207.19847   C 482.95642,207.67846 482.71642,207.91846 482.23643,207.91846   L 480.31644,207.91846   C 479.83645,207.91846 479.59645,207.67846 479.59645,207.19847   L 479.59645,184.87863   C 479.59645,184.39863 479.83645,184.15864 480.31644,184.15864   L 482.07643,184.15864   C 482.63642,184.15864 482.71642,184.39863 482.79642,184.87863   z "
     id="path28" />
  <path
     style="fill:#0089cf;fill-rule:nonzero;fill-opacity:1;stroke:none;"
     clip-path="url(#clipEmfPath1)"
     d="  M 507.51624,193.99856   L 518.63616,193.99856   L 518.63616,190.15859   C 518.63616,187.99861 517.27617,186.47862 513.1162,186.47862   C 508.79623,186.47862 507.51624,187.99861 507.51624,190.15859   z  M 521.75614,195.91855   C 521.75614,196.31855 521.59614,196.55854 521.11614,196.55854   L 507.51624,196.55854   L 507.51624,201.9185   C 507.51624,204.07849 508.63623,205.59848 513.1162,205.59848   C 517.51617,205.59848 518.63616,204.07849 518.63616,201.9185   L 518.63616,201.03851   C 518.63616,200.55851 518.87616,200.39852 519.27615,200.39852   L 521.03614,200.39852   C 521.51614,200.39852 521.75614,200.55851 521.75614,201.03851   L 521.75614,202.0785   C 521.75614,205.75848 519.59615,208.23846 512.9562,208.23846   C 506.39625,208.23846 504.23626,205.75848 504.23626,202.0785   L 504.23626,189.99859   C 504.23626,186.31862 506.47625,183.75864 513.1162,183.75864   C 519.67615,183.75864 521.75614,186.31862 521.75614,189.99859   z "
     id="path29" />
  <path
     style="fill:#0089cf;fill-rule:nonzero;fill-opacity:1;stroke:none;"
     clip-path="url(#clipEmfPath1)"
     d="  M 537.91602,184.23864   C 538.39601,184.23864 538.63601,184.47863 538.63601,184.95863   L 538.63601,186.31862   C 538.63601,186.79862 538.39601,187.03861 537.91602,187.03861   L 532.55606,187.03861   L 532.55606,201.35851   C 532.55606,203.59849 533.83605,205.03848 538.07601,205.03848   L 538.87601,205.03848   C 539.356,205.03848 539.596,205.27848 539.596,205.75848   L 539.596,207.19847   C 539.596,207.67846 539.356,207.91846 538.87601,207.91846   L 537.67602,207.91846   C 531.11607,207.91846 529.19608,205.59848 529.19608,201.67851   L 529.19608,187.03861   L 526.3161,187.03861   C 525.8361,187.03861 525.59611,186.79862 525.59611,186.31862   L 525.59611,185.11863   C 525.59611,184.63863 525.8361,184.47863 526.3161,184.39863   L 528.79608,184.23864   L 529.19608,184.23864   L 529.19608,179.19867   C 529.19608,178.71868 529.43608,178.47868 529.91607,178.47868   L 531.83606,178.47868   C 532.31606,178.47868 532.55606,178.71868 532.55606,179.19867   L 532.55606,184.23864   z "
     id="path30" />
  <path
     style="fill:#0089cf;fill-rule:nonzero;fill-opacity:1;stroke:none;"
     clip-path="url(#clipEmfPath1)"
     d="  M 547.91594,207.19847   C 547.91594,207.67846 547.67594,207.91846 547.19595,207.91846   L 545.27596,207.91846   C 544.79596,207.91846 544.55597,207.67846 544.55597,207.19847   L 544.55597,184.87863   C 544.55597,184.39863 544.79596,184.15864 545.27596,184.15864   L 547.19595,184.15864   C 547.67594,184.15864 547.91594,184.39863 547.91594,184.87863   z  M 547.91594,179.51867   C 547.91594,179.99867 547.67594,180.23866 547.19595,180.23866   L 545.27596,180.23866   C 544.79596,180.23866 544.55597,179.99867 544.55597,179.51867   L 544.55597,175.0387   C 544.55597,174.55871 544.79596,174.31871 545.27596,174.31871   L 547.19595,174.31871   C 547.67594,174.31871 547.91594,174.55871 547.91594,175.0387   z "
     id="path31" />
  <path
     style="fill:#0089cf;fill-rule:nonzero;fill-opacity:1;stroke:none;"
     clip-path="url(#clipEmfPath1)"
     d="  M 572.23576,189.99859   L 572.23576,190.87859   C 572.23576,191.35858 571.99576,191.59858 571.51577,191.59858   L 569.75578,191.59858   C 569.19578,191.59858 569.03578,191.35858 569.03578,190.87859   L 569.03578,190.15859   C 569.03578,187.99861 567.75579,186.55862 563.51583,186.55862   C 559.27586,186.55862 558.07587,187.99861 558.07587,190.15859   L 558.07587,201.8385   C 558.07587,204.07849 559.27586,205.51848 563.51583,205.51848   C 567.75579,205.51848 569.03578,204.07849 569.03578,201.8385   L 569.03578,200.79851   C 569.03578,200.23852 569.19578,200.07852 569.75578,200.07852   L 571.51577,200.07852   C 571.99576,200.07852 572.23576,200.23852 572.23576,200.79851   L 572.23576,202.0785   C 572.23576,205.75848 569.99578,208.23846 563.43583,208.23846   C 556.87587,208.23846 554.71589,205.75848 554.71589,202.0785   L 554.71589,189.99859   C 554.71589,186.31862 556.87587,183.75864 563.51583,183.75864   C 570.07578,183.75864 572.23576,186.31862 572.23576,189.99859   z "
     id="path32" />
  <path
     style="fill:#0089cf;fill-rule:nonzero;fill-opacity:1;stroke:none;"
     clip-path="url(#clipEmfPath1)"
     d="  M 590.87562,189.2786   C 590.87562,187.35861 589.11564,186.31862 585.51566,186.31862   C 581.99569,186.31862 580.3157,187.35861 580.3157,189.2786   L 580.3157,190.47859   C 580.3157,191.99858 581.67569,192.79857 582.79568,193.11857   L 590.15563,195.51855   C 592.55561,196.31855 594.3156,197.83853 594.3156,200.07852   L 594.3156,202.8785   C 594.3156,205.75848 591.67562,208.23846 585.51566,208.23846   C 579.35571,208.23846 576.87573,205.75848 576.87573,202.8785   L 576.87573,201.51851   C 576.87573,201.11851 577.03573,200.87851 577.51572,200.87851   L 579.27571,200.87851   C 579.75571,200.87851 579.9157,201.11851 579.9157,201.51851   L 579.9157,202.7185   C 579.9157,204.63848 581.83569,205.75848 585.51566,205.75848   C 589.19564,205.75848 591.19562,204.63848 591.19562,202.7185   L 591.19562,200.95851   C 591.19562,199.51852 589.99563,198.79853 588.39564,198.23853   L 580.9557,195.75855   C 579.27571,195.19855 577.27572,193.51857 577.27572,191.11858   L 577.27572,189.2786   C 577.27572,186.39862 579.43571,183.75864 585.59566,183.75864   C 591.67562,183.75864 593.9156,186.39862 593.9156,189.2786   L 593.9156,190.63859   C 593.9156,191.11858 593.7556,191.27858 593.27561,191.27858   L 591.51562,191.27858   C 591.03562,191.27858 590.87562,191.11858 590.87562,190.63859   z "
     id="path33" />
  <path
     style="fill:#0089cf;fill-rule:nonzero;fill-opacity:1;stroke:none;"
     clip-path="url(#clipEmfPath1)"
     d="  M 624.87537,190.23859   C 624.87537,187.99861 623.35538,186.55862 619.11541,186.55862   C 614.87545,186.55862 613.35546,187.99861 613.35546,190.23859   L 613.35546,201.8385   C 613.35546,204.07849 614.87545,205.51848 619.11541,205.51848   C 623.35538,205.51848 624.87537,204.07849 624.87537,201.8385   z  M 610.07548,189.99859   C 610.07548,186.31862 612.55546,183.75864 619.11541,183.75864   C 625.67537,183.75864 628.15535,186.31862 628.15535,189.99859   L 628.15535,202.0785   C 628.15535,205.75848 625.67537,208.23846 619.11541,208.23846   C 612.55546,208.23846 610.07548,205.75848 610.07548,202.0785   z "
     id="path34" />
  <path
     style="fill:#0089cf;fill-rule:nonzero;fill-opacity:1;stroke:none;"
     clip-path="url(#clipEmfPath1)"
     d="  M 636.15529,184.23864   L 636.15529,180.15867   C 636.15529,176.47869 638.55527,173.99871 645.19522,173.99871   L 645.43522,173.99871   C 645.91522,173.99871 646.15521,174.15871 646.15521,174.63871   L 646.15521,176.0787   C 646.15521,176.55869 645.91522,176.79869 645.43522,176.79869   L 645.19522,176.79869   C 640.87525,176.79869 639.51526,178.23868 639.51526,180.47866   L 639.51526,184.23864   L 644.79522,184.23864   C 645.27522,184.23864 645.51522,184.47863 645.51522,184.95863   L 645.51522,186.31862   C 645.51522,186.79862 645.27522,187.03861 644.79522,187.03861   L 639.51526,187.03861   L 639.51526,207.19847   C 639.51526,207.67846 639.35526,207.91846 638.79527,207.91846   L 636.87528,207.91846   C 636.39529,207.91846 636.15529,207.67846 636.15529,207.19847   L 636.15529,187.03861   L 633.19531,187.03861   C 632.71531,187.03861 632.55531,186.79862 632.55531,186.31862   L 632.55531,185.11863   C 632.55531,184.63863 632.71531,184.47863 633.19531,184.39863   L 635.83529,184.23864   z "
     id="path35" />
  <path
     style="fill:#0089cf;fill-rule:nonzero;fill-opacity:1;stroke:none;"
     clip-path="url(#clipEmfPath1)"
     d="  M 670.47503,184.23864   C 670.95503,184.23864 671.19503,184.47863 671.19503,184.95863   L 671.19503,186.31862   C 671.19503,186.79862 670.95503,187.03861 670.47503,187.03861   L 665.11507,187.03861   L 665.11507,201.35851   C 665.11507,203.59849 666.39506,205.03848 670.63503,205.03848   L 671.43503,205.03848   C 671.91502,205.03848 672.15502,205.27848 672.15502,205.75848   L 672.15502,207.19847   C 672.15502,207.67846 671.91502,207.91846 671.43503,207.91846   L 670.23504,207.91846   C 663.67508,207.91846 661.7551,205.59848 661.7551,201.67851   L 661.7551,187.03861   L 658.87512,187.03861   C 658.39512,187.03861 658.15512,186.79862 658.15512,186.31862   L 658.15512,185.11863   C 658.15512,184.63863 658.39512,184.47863 658.87512,184.39863   L 661.3551,184.23864   L 661.7551,184.23864   L 661.7551,179.19867   C 661.7551,178.71868 661.9951,178.47868 662.47509,178.47868   L 664.39508,178.47868   C 664.87507,178.47868 665.11507,178.71868 665.11507,179.19867   L 665.11507,184.23864   z "
     id="path36" />
  <path
     style="fill:#0089cf;fill-rule:nonzero;fill-opacity:1;stroke:none;"
     clip-path="url(#clipEmfPath1)"
     d="  M 680.47496,186.63862   C 681.83495,185.43863 684.55493,183.75864 688.6349,183.75864   C 693.03487,183.75864 695.19485,186.31862 695.19485,189.67859   L 695.19485,207.19847   C 695.19485,207.67846 695.03485,207.91846 694.55486,207.91846   L 692.63487,207.91846   C 692.15487,207.91846 691.91487,207.67846 691.91487,207.19847   L 691.91487,190.39859   C 691.91487,188.23861 690.79488,186.79862 687.67491,186.79862   C 684.15493,186.79862 681.51495,188.5586 680.47496,189.4386   L 680.47496,207.19847   C 680.47496,207.67846 680.23496,207.91846 679.75496,207.91846   L 677.83498,207.91846   C 677.35498,207.91846 677.11498,207.67846 677.11498,207.19847   L 677.11498,175.0387   C 677.11498,174.55871 677.35498,174.31871 677.83498,174.31871   L 679.75496,174.31871   C 680.23496,174.31871 680.47496,174.55871 680.47496,175.0387   z "
     id="path37" />
  <path
     style="fill:#0089cf;fill-rule:nonzero;fill-opacity:1;stroke:none;"
     clip-path="url(#clipEmfPath1)"
     d="  M 705.03478,193.99856   L 716.1547,193.99856   L 716.1547,190.15859   C 716.1547,187.99861 714.79471,186.47862 710.55474,186.47862   C 706.23477,186.47862 705.03478,187.99861 705.03478,190.15859   z  M 719.27467,195.91855   C 719.27467,196.31855 719.11467,196.55854 718.63468,196.55854   L 705.03478,196.55854   L 705.03478,201.9185   C 705.03478,204.07849 706.15477,205.59848 710.55474,205.59848   C 715.0347,205.59848 716.1547,204.07849 716.1547,201.9185   L 716.1547,201.03851   C 716.1547,200.55851 716.31469,200.39852 716.79469,200.39852   L 718.55468,200.39852   C 719.03467,200.39852 719.27467,200.55851 719.27467,201.03851   L 719.27467,202.0785   C 719.27467,205.75848 717.11469,208.23846 710.47474,208.23846   C 703.91479,208.23846 701.7548,205.75848 701.7548,202.0785   L 701.7548,189.99859   C 701.7548,186.31862 703.99479,183.75864 710.55474,183.75864   C 717.19469,183.75864 719.27467,186.31862 719.27467,189.99859   z "
     id="path38" />
  <path
     style="fill:#0089cf;fill-rule:nonzero;fill-opacity:1;stroke:none;"
     clip-path="url(#clipEmfPath1)"
     d="  M 756.3944,201.27851   C 756.3944,205.11848 754.23441,208.23846 746.31447,208.23846   C 738.39453,208.23846 736.15455,205.11848 736.15455,201.27851   L 736.15455,181.83865   C 736.15455,177.99868 738.39453,174.8787 746.31447,174.8787   C 754.23441,174.8787 756.3944,177.99868 756.3944,181.83865   L 756.3944,184.31863   C 756.3944,184.87863 756.2344,185.11863 755.7544,185.11863   L 753.83442,185.11863   C 753.27442,185.11863 753.11442,184.87863 753.11442,184.31863   L 753.11442,182.39865   C 753.11442,179.59867 751.43443,177.75868 746.31447,177.75868   C 741.27451,177.75868 739.59452,179.59867 739.59452,182.39865   L 739.59452,200.71851   C 739.59452,203.51849 741.27451,205.35848 746.31447,205.35848   C 751.43443,205.35848 753.11442,203.51849 753.11442,200.71851   L 753.11442,198.15853   C 753.11442,197.67854 753.27442,197.43854 753.83442,197.43854   L 755.7544,197.43854   C 756.2344,197.43854 756.3944,197.67854 756.3944,198.15853   z "
     id="path39" />
  <path
     style="fill:#0089cf;fill-rule:nonzero;fill-opacity:1;stroke:none;"
     clip-path="url(#clipEmfPath1)"
     d="  M 776.63425,184.15864   C 777.19424,184.15864 777.35424,184.39863 777.35424,184.87863   L 777.35424,186.15862   C 777.35424,186.39862 777.27424,186.63862 777.19424,186.79862   L 764.95433,205.11848   L 777.27424,205.11848   C 777.75424,205.11848 777.99424,205.27848 777.99424,205.83848   L 777.99424,207.19847   C 777.99424,207.67846 777.75424,207.91846 777.27424,207.91846   L 761.59436,207.91846   C 761.11436,207.91846 760.87436,207.67846 760.87436,207.19847   L 760.87436,205.83848   C 760.87436,205.59848 760.95436,205.35848 761.11436,205.27848   L 773.19427,186.95862   L 762.23435,186.95862   C 761.75436,186.95862 761.51436,186.79862 761.51436,186.23862   L 761.51436,184.87863   C 761.51436,184.39863 761.75436,184.15864 762.23435,184.15864   z "
     id="path40" />
  <path
     style="fill:#0089cf;fill-rule:nonzero;fill-opacity:1;stroke:none;"
     clip-path="url(#clipEmfPath1)"
     d="  M 786.39417,193.99856   L 797.51409,193.99856   L 797.51409,190.15859   C 797.51409,187.99861 796.1541,186.47862 791.91413,186.47862   C 787.59417,186.47862 786.39417,187.99861 786.39417,190.15859   z  M 800.63407,195.91855   C 800.63407,196.31855 800.47407,196.55854 799.99407,196.55854   L 786.39417,196.55854   L 786.39417,201.9185   C 786.39417,204.07849 787.51417,205.59848 791.91413,205.59848   C 796.3941,205.59848 797.51409,204.07849 797.51409,201.9185   L 797.51409,201.03851   C 797.51409,200.55851 797.67409,200.39852 798.15409,200.39852   L 799.91407,200.39852   C 800.39407,200.39852 800.63407,200.55851 800.63407,201.03851   L 800.63407,202.0785   C 800.63407,205.75848 798.47409,208.23846 791.83413,208.23846   C 785.27418,208.23846 783.1142,205.75848 783.1142,202.0785   L 783.1142,189.99859   C 783.1142,186.31862 785.35418,183.75864 791.91413,183.75864   C 798.55408,183.75864 800.63407,186.31862 800.63407,189.99859   z "
     id="path41" />
  <path
     style="fill:#0089cf;fill-rule:nonzero;fill-opacity:1;stroke:none;"
     clip-path="url(#clipEmfPath1)"
     d="  M 823.9939,189.99859   L 823.9939,190.87859   C 823.9939,191.35858 823.7539,191.59858 823.2739,191.59858   L 821.43392,191.59858   C 820.95392,191.59858 820.71392,191.35858 820.71392,190.87859   L 820.71392,190.15859   C 820.71392,187.99861 819.51393,186.55862 815.27396,186.55862   C 811.03399,186.55862 809.834,187.99861 809.834,190.15859   L 809.834,201.8385   C 809.834,204.07849 811.03399,205.51848 815.27396,205.51848   C 819.51393,205.51848 820.71392,204.07849 820.71392,201.8385   L 820.71392,200.79851   C 820.71392,200.23852 820.95392,200.07852 821.43392,200.07852   L 823.2739,200.07852   C 823.7539,200.07852 823.9939,200.23852 823.9939,200.79851   L 823.9939,202.0785   C 823.9939,205.75848 821.75391,208.23846 815.19396,208.23846   C 808.63401,208.23846 806.47403,205.75848 806.47403,202.0785   L 806.47403,189.99859   C 806.47403,186.31862 808.63401,183.75864 815.19396,183.75864   C 821.83391,183.75864 823.9939,186.31862 823.9939,189.99859   z "
     id="path42" />
  <path
     style="fill:#0089cf;fill-rule:nonzero;fill-opacity:1;stroke:none;"
     clip-path="url(#clipEmfPath1)"
     d="  M 833.35383,186.63862   C 834.71382,185.43863 837.4338,183.75864 841.51377,183.75864   C 845.91373,183.75864 848.07372,186.31862 848.07372,189.67859   L 848.07372,207.19847   C 848.07372,207.67846 847.91372,207.91846 847.43372,207.91846   L 845.51374,207.91846   C 845.03374,207.91846 844.79374,207.67846 844.79374,207.19847   L 844.79374,190.39859   C 844.79374,188.23861 843.67375,186.79862 840.55377,186.79862   C 837.0338,186.79862 834.39382,188.5586 833.35383,189.4386   L 833.35383,207.19847   C 833.35383,207.67846 833.11383,207.91846 832.63383,207.91846   L 830.71385,207.91846   C 830.23385,207.91846 829.99385,207.67846 829.99385,207.19847   L 829.99385,175.0387   C 829.99385,174.55871 830.23385,174.31871 830.71385,174.31871   L 832.63383,174.31871   C 833.11383,174.31871 833.35383,174.55871 833.35383,175.0387   z "
     id="path43" />
  <path
     style="fill:#0089cf;fill-rule:nonzero;fill-opacity:1;stroke:none;"
     clip-path="url(#clipEmfPath1)"
     d="  M 876.15351,184.63863   C 875.67351,183.11864 875.03352,179.35867 874.95352,178.87867   C 874.87352,179.19867 874.31352,182.71865 873.75353,184.55863   L 870.15355,195.91855   L 879.67348,195.91855   z  M 876.8735,175.9987   L 886.47343,207.19847   C 886.63343,207.67846 886.47343,207.91846 885.91344,207.91846   L 883.83345,207.91846   C 883.35346,207.91846 883.11346,207.67846 883.03346,207.19847   L 880.39348,198.63853   L 869.35356,198.63853   L 866.79358,207.19847   C 866.63358,207.67846 866.47358,207.91846 865.99359,207.91846   L 864.0736,207.91846   C 863.5936,207.91846 863.3536,207.67846 863.5136,207.19847   L 873.03353,175.9987   C 873.19353,175.5187 873.43353,175.2787 873.99353,175.2787   L 876.07351,175.2787   C 876.55351,175.2787 876.79351,175.5187 876.8735,175.9987   z "
     id="path44" />
  <path
     style="fill:#0089cf;fill-rule:nonzero;fill-opacity:1;stroke:none;"
     clip-path="url(#clipEmfPath1)"
     d="  M 908.31327,189.99859   L 908.31327,190.87859   C 908.31327,191.35858 908.15327,191.59858 907.59328,191.59858   L 905.83329,191.59858   C 905.35329,191.59858 905.1133,191.35858 905.1133,190.87859   L 905.1133,190.15859   C 905.1133,187.99861 903.9133,186.55862 899.67334,186.55862   C 895.35337,186.55862 894.15338,187.99861 894.15338,190.15859   L 894.15338,201.8385   C 894.15338,204.07849 895.35337,205.51848 899.67334,205.51848   C 903.9133,205.51848 905.1133,204.07849 905.1133,201.8385   L 905.1133,200.79851   C 905.1133,200.23852 905.35329,200.07852 905.83329,200.07852   L 907.59328,200.07852   C 908.15327,200.07852 908.31327,200.23852 908.31327,200.79851   L 908.31327,202.0785   C 908.31327,205.75848 906.15329,208.23846 899.59334,208.23846   C 892.95339,208.23846 890.8734,205.75848 890.8734,202.0785   L 890.8734,189.99859   C 890.8734,186.31862 893.03338,183.75864 899.59334,183.75864   C 906.15329,183.75864 908.31327,186.31862 908.31327,189.99859   z "
     id="path45" />
  <path
     style="fill:#0089cf;fill-rule:nonzero;fill-opacity:1;stroke:none;"
     clip-path="url(#clipEmfPath1)"
     d="  M 928.07313,202.7985   L 928.07313,197.19854   L 920.47318,197.19854   C 917.8332,197.19854 916.79321,198.55853 916.79321,200.63851   L 916.79321,202.1585   C 916.79321,204.31849 918.0732,205.51848 920.95318,205.51848   C 924.39315,205.51848 926.95313,203.67849 928.07313,202.7985   z  M 914.07323,189.91859   C 914.07323,186.31862 916.23321,183.75864 922.71317,183.75864   C 929.27312,183.75864 931.3531,186.31862 931.3531,189.91859   L 931.3531,207.19847   C 931.3531,207.67846 931.1131,207.91846 930.63311,207.91846   L 928.95312,207.91846   C 928.39312,207.91846 928.23312,207.67846 928.23312,207.19847   L 928.15312,205.43848   C 926.71314,206.55847 924.07316,208.23846 920.23318,208.23846   C 915.75322,208.23846 913.59323,205.75848 913.59323,202.6385   L 913.59323,200.23852   C 913.59323,197.11854 915.67322,194.55856 919.83319,194.55856   L 928.07313,194.55856   L 928.07313,190.23859   C 928.07313,188.07861 926.95313,186.55862 922.63317,186.55862   C 918.3932,186.55862 917.19321,187.99861 917.19321,190.15859   L 917.19321,190.71859   C 917.19321,191.19858 916.95321,191.43858 916.47321,191.43858   L 914.71322,191.43858   C 914.23323,191.43858 914.07323,191.19858 914.07323,190.71859   z "
     id="path46" />
  <path
     style="fill:#0089cf;fill-rule:nonzero;fill-opacity:1;stroke:none;"
     clip-path="url(#clipEmfPath1)"
     d="  M 941.43303,201.67851   C 941.43303,203.59849 942.55302,205.27848 945.673,205.27848   C 949.19297,205.27848 951.75295,203.35849 952.87294,202.5585   L 952.87294,189.5186   C 951.75295,188.7186 949.19297,186.79862 945.673,186.79862   C 942.55302,186.79862 941.43303,188.4786 941.43303,190.39859   z  M 952.95294,205.35848   C 951.51295,206.47847 948.79297,208.23846 944.793,208.23846   C 940.15304,208.23846 938.07305,205.75848 938.07305,202.1585   L 938.07305,189.91859   C 938.07305,186.31862 940.15304,183.75864 944.793,183.75864   C 948.79297,183.75864 951.43295,185.59863 952.87294,186.63862   L 952.87294,175.0387   C 952.87294,174.55871 953.03294,174.31871 953.59294,174.31871   L 955.51292,174.31871   C 955.99292,174.31871 956.23292,174.55871 956.23292,175.0387   L 956.23292,207.19847   C 956.23292,207.67846 955.99292,207.91846 955.51292,207.91846   L 953.75294,207.91846   C 953.19294,207.91846 953.11294,207.67846 953.03294,207.19847   z "
     id="path47" />
  <path
     style="fill:#0089cf;fill-rule:nonzero;fill-opacity:1;stroke:none;"
     clip-path="url(#clipEmfPath1)"
     d="  M 966.55284,193.99856   L 977.67276,193.99856   L 977.67276,190.15859   C 977.67276,187.99861 976.31277,186.47862 972.0728,186.47862   C 967.75283,186.47862 966.55284,187.99861 966.55284,190.15859   z  M 980.79273,195.91855   C 980.79273,196.31855 980.55274,196.55854 980.07274,196.55854   L 966.55284,196.55854   L 966.55284,201.9185   C 966.55284,204.07849 967.67283,205.59848 972.0728,205.59848   C 976.47277,205.59848 977.67276,204.07849 977.67276,201.9185   L 977.67276,201.03851   C 977.67276,200.55851 977.83276,200.39852 978.31275,200.39852   L 980.07274,200.39852   C 980.55274,200.39852 980.79273,200.55851 980.79273,201.03851   L 980.79273,202.0785   C 980.79273,205.75848 978.63275,208.23846 971.9928,208.23846   C 965.43285,208.23846 963.27286,205.75848 963.27286,202.0785   L 963.27286,189.99859   C 963.27286,186.31862 965.43285,183.75864 972.0728,183.75864   C 978.63275,183.75864 980.79273,186.31862 980.79273,189.99859   z "
     id="path48" />
  <path
     style="fill:#0089cf;fill-rule:nonzero;fill-opacity:1;stroke:none;"
     clip-path="url(#clipEmfPath1)"
     d="  M 989.83267,184.15864   C 990.39266,184.15864 990.55266,184.39863 990.55266,184.87863   L 990.63266,186.63862   C 991.91265,185.59863 994.47263,183.75864 998.5526,183.75864   C 1001.8326,183.75864 1003.8326,185.11863 1004.7126,187.03861   C 1005.9125,186.07862 1008.4725,183.75864 1013.1125,183.75864   C 1017.5125,183.75864 1019.7524,186.31862 1019.7524,189.67859   L 1019.7524,207.19847   C 1019.7524,207.67846 1019.5124,207.91846 1019.0325,207.91846   L 1017.1125,207.91846   C 1016.6325,207.91846 1016.3925,207.67846 1016.3925,207.19847   L 1016.3925,190.39859   C 1016.3925,188.23861 1015.2725,186.79862 1012.1525,186.79862   C 1008.4725,186.79862 1006.0725,188.7186 1005.1926,189.5186   L 1005.1926,190.39859   L 1005.1926,207.19847   C 1005.1926,207.67846 1005.0326,207.91846 1004.5526,207.91846   L 1002.6326,207.91846   C 1002.1526,207.91846 1001.9126,207.67846 1001.9126,207.19847   L 1001.9126,190.39859   C 1001.9126,188.23861 1000.7126,186.79862 997.67261,186.79862   C 994.15264,186.79862 991.75265,188.5586 990.71266,189.4386   L 990.71266,207.19847   C 990.71266,207.67846 990.55266,207.91846 990.07267,207.91846   L 988.15268,207.91846   C 987.59268,207.91846 987.43269,207.67846 987.43269,207.19847   L 987.43269,184.87863   C 987.43269,184.39863 987.59268,184.15864 988.15268,184.15864   z "
     id="path49" />
  <path
     style="fill:#0089cf;fill-rule:nonzero;fill-opacity:1;stroke:none;"
     clip-path="url(#clipEmfPath1)"
     d="  M 1032.9523,200.79851   C 1033.3523,202.1585 1033.5923,203.59849 1033.5923,203.67849   C 1033.6723,203.51849 1034.0723,201.9185 1034.3923,200.95851   L 1039.8323,184.87863   C 1039.9923,184.47863 1040.2323,184.15864 1040.7123,184.15864   L 1042.4723,184.15864   C 1043.0323,184.15864 1043.2723,184.47863 1043.1123,184.87863   L 1032.1524,217.11839   C 1031.9924,217.51839 1031.8324,217.83839 1031.3524,217.83839   L 1029.8324,217.83839   C 1029.3524,217.83839 1029.1124,217.51839 1029.2724,217.11839   L 1032.1524,208.07846   L 1024.1524,184.87863   C 1023.9924,184.47863 1024.2324,184.15864 1024.7124,184.15864   L 1026.7124,184.15864   C 1027.1924,184.15864 1027.3524,184.47863 1027.5124,184.87863   z "
     id="path50" />
  <path
     style="fill:#0089cf;fill-rule:nonzero;fill-opacity:1;stroke:none;"
     clip-path="url(#clipEmfPath1)"
     d="  M 1072.7921,190.23859   C 1072.7921,187.99861 1071.2721,186.55862 1067.0321,186.55862   C 1062.7921,186.55862 1061.3521,187.99861 1061.3521,190.23859   L 1061.3521,201.8385   C 1061.3521,204.07849 1062.7921,205.51848 1067.0321,205.51848   C 1071.2721,205.51848 1072.7921,204.07849 1072.7921,201.8385   z  M 1057.9922,189.99859   C 1057.9922,186.31862 1060.4721,183.75864 1067.0321,183.75864   C 1073.592,183.75864 1076.072,186.31862 1076.072,189.99859   L 1076.072,202.0785   C 1076.072,205.75848 1073.592,208.23846 1067.0321,208.23846   C 1060.4721,208.23846 1057.9922,205.75848 1057.9922,202.0785   z "
     id="path51" />
  <path
     style="fill:#0089cf;fill-rule:nonzero;fill-opacity:1;stroke:none;"
     clip-path="url(#clipEmfPath1)"
     d="  M 1084.392,184.23864   L 1084.392,180.15867   C 1084.392,176.47869 1086.7919,173.99871 1093.3519,173.99871   L 1093.5919,173.99871   C 1094.0719,173.99871 1094.3119,174.15871 1094.3119,174.63871   L 1094.3119,176.0787   C 1094.3119,176.55869 1094.0719,176.79869 1093.5919,176.79869   L 1093.3519,176.79869   C 1089.0319,176.79869 1087.7519,178.23868 1087.7519,180.47866   L 1087.7519,184.23864   L 1092.9519,184.23864   C 1093.4319,184.23864 1093.6719,184.47863 1093.6719,184.95863   L 1093.6719,186.31862   C 1093.6719,186.79862 1093.4319,187.03861 1092.9519,187.03861   L 1087.7519,187.03861   L 1087.7519,207.19847   C 1087.7519,207.67846 1087.5119,207.91846 1087.0319,207.91846   L 1085.112,207.91846   C 1084.632,207.91846 1084.392,207.67846 1084.392,207.19847   L 1084.392,187.03861   L 1081.352,187.03861   C 1080.872,187.03861 1080.712,186.79862 1080.712,186.31862   L 1080.712,185.11863   C 1080.712,184.63863 1080.872,184.47863 1081.352,184.39863   L 1083.992,184.23864   z "
     id="path52" />
  <path
     style="fill:#0089cf;fill-rule:nonzero;fill-opacity:1;stroke:none;"
     clip-path="url(#clipEmfPath1)"
     d="  M 1119.3517,177.75868   C 1114.3117,177.75868 1112.7118,179.51867 1112.7118,182.31865   L 1112.7118,183.75864   C 1112.7118,186.07862 1114.3117,187.03861 1115.5117,187.51861   L 1124.5517,190.87859   C 1127.1117,191.83858 1129.5116,193.75856 1129.5116,197.11854   L 1129.5116,201.27851   C 1129.5116,205.11848 1127.0317,208.23846 1119.2717,208.23846   C 1111.5118,208.23846 1108.9518,205.11848 1108.9518,201.27851   L 1108.9518,198.63853   C 1108.9518,198.07853 1109.1918,197.91853 1109.6718,197.91853   L 1111.5918,197.91853   C 1112.0718,197.91853 1112.3118,198.07853 1112.3118,198.63853   L 1112.3118,200.79851   C 1112.3118,203.59849 1114.1517,205.35848 1119.1917,205.35848   C 1124.3117,205.35848 1126.1517,203.59849 1126.1517,200.79851   L 1126.1517,197.83853   C 1126.1517,195.35855 1124.0717,194.31856 1122.1517,193.59857   L 1113.5918,190.31859   C 1111.5918,189.5186 1109.4318,187.51861 1109.4318,184.55863   L 1109.4318,181.83865   C 1109.4318,177.99868 1111.6718,174.8787 1119.2717,174.8787   C 1126.9517,174.8787 1129.2716,177.99868 1129.2716,181.83865   L 1129.2716,184.15864   C 1129.2716,184.63863 1129.1116,184.87863 1128.5516,184.87863   L 1126.6317,184.87863   C 1126.1517,184.87863 1125.9117,184.63863 1125.9117,184.15864   L 1125.9117,182.31865   C 1125.9117,179.51867 1124.3117,177.75868 1119.3517,177.75868   z "
     id="path53" />
  <path
     style="fill:#0089cf;fill-rule:nonzero;fill-opacity:1;stroke:none;"
     clip-path="url(#clipEmfPath1)"
     d="  M 1153.4315,189.99859   L 1153.4315,190.87859   C 1153.4315,191.35858 1153.2715,191.59858 1152.7115,191.59858   L 1150.9515,191.59858   C 1150.3915,191.59858 1150.2315,191.35858 1150.2315,190.87859   L 1150.2315,190.15859   C 1150.2315,187.99861 1149.0315,186.55862 1144.7115,186.55862   C 1140.4716,186.55862 1139.2716,187.99861 1139.2716,190.15859   L 1139.2716,201.8385   C 1139.2716,204.07849 1140.4716,205.51848 1144.7115,205.51848   C 1149.0315,205.51848 1150.2315,204.07849 1150.2315,201.8385   L 1150.2315,200.79851   C 1150.2315,200.23852 1150.3915,200.07852 1150.9515,200.07852   L 1152.7115,200.07852   C 1153.2715,200.07852 1153.4315,200.23852 1153.4315,200.79851   L 1153.4315,202.0785   C 1153.4315,205.75848 1151.1915,208.23846 1144.6315,208.23846   C 1138.0716,208.23846 1135.9916,205.75848 1135.9916,202.0785   L 1135.9916,189.99859   C 1135.9916,186.31862 1138.1516,183.75864 1144.7115,183.75864   C 1151.2715,183.75864 1153.4315,186.31862 1153.4315,189.99859   z "
     id="path54" />
  <path
     style="fill:#0089cf;fill-rule:nonzero;fill-opacity:1;stroke:none;"
     clip-path="url(#clipEmfPath1)"
     d="  M 1162.7914,207.19847   C 1162.7914,207.67846 1162.6314,207.91846 1162.1514,207.91846   L 1160.2314,207.91846   C 1159.6714,207.91846 1159.5114,207.67846 1159.5114,207.19847   L 1159.5114,184.87863   C 1159.5114,184.39863 1159.6714,184.15864 1160.2314,184.15864   L 1162.1514,184.15864   C 1162.6314,184.15864 1162.7914,184.39863 1162.7914,184.87863   z  M 1162.7914,179.51867   C 1162.7914,179.99867 1162.6314,180.23866 1162.1514,180.23866   L 1160.2314,180.23866   C 1159.6714,180.23866 1159.5114,179.99867 1159.5114,179.51867   L 1159.5114,175.0387   C 1159.5114,174.55871 1159.6714,174.31871 1160.2314,174.31871   L 1162.1514,174.31871   C 1162.6314,174.31871 1162.7914,174.55871 1162.7914,175.0387   z "
     id="path55" />
  <path
     style="fill:#0089cf;fill-rule:nonzero;fill-opacity:1;stroke:none;"
     clip-path="url(#clipEmfPath1)"
     d="  M 1173.1913,193.99856   L 1184.3112,193.99856   L 1184.3112,190.15859   C 1184.3112,187.99861 1182.9512,186.47862 1178.7113,186.47862   C 1174.3913,186.47862 1173.1913,187.99861 1173.1913,190.15859   z  M 1187.4312,195.91855   C 1187.4312,196.31855 1187.1912,196.55854 1186.7112,196.55854   L 1173.1913,196.55854   L 1173.1913,201.9185   C 1173.1913,204.07849 1174.3113,205.59848 1178.7113,205.59848   C 1183.1112,205.59848 1184.3112,204.07849 1184.3112,201.9185   L 1184.3112,201.03851   C 1184.3112,200.55851 1184.4712,200.39852 1184.9512,200.39852   L 1186.7112,200.39852   C 1187.1912,200.39852 1187.4312,200.55851 1187.4312,201.03851   L 1187.4312,202.0785   C 1187.4312,205.75848 1185.2712,208.23846 1178.6313,208.23846   C 1172.0713,208.23846 1169.9113,205.75848 1169.9113,202.0785   L 1169.9113,189.99859   C 1169.9113,186.31862 1172.0713,183.75864 1178.7113,183.75864   C 1185.2712,183.75864 1187.4312,186.31862 1187.4312,189.99859   z "
     id="path56" />
  <path
     style="fill:#0089cf;fill-rule:nonzero;fill-opacity:1;stroke:none;"
     clip-path="url(#clipEmfPath1)"
     d="  M 1197.1911,184.87863   L 1197.2711,186.71862   C 1198.6311,185.59863 1201.4311,183.75864 1205.5111,183.75864   C 1209.991,183.75864 1212.151,186.31862 1212.151,189.67859   L 1212.151,207.19847   C 1212.151,207.67846 1211.911,207.91846 1211.431,207.91846   L 1209.511,207.91846   C 1209.031,207.91846 1208.791,207.67846 1208.791,207.19847   L 1208.791,190.39859   C 1208.791,188.23861 1207.6711,186.79862 1204.6311,186.79862   C 1201.0311,186.79862 1198.4711,188.5586 1197.3511,189.4386   L 1197.3511,207.19847   C 1197.3511,207.67846 1197.1911,207.91846 1196.7111,207.91846   L 1194.7911,207.91846   C 1194.2312,207.91846 1194.0712,207.67846 1194.0712,207.19847   L 1194.0712,184.87863   C 1194.0712,184.39863 1194.2312,184.15864 1194.7911,184.15864   L 1196.4711,184.15864   C 1197.0311,184.15864 1197.1911,184.39863 1197.1911,184.87863   z "
     id="path57" />
  <path
     style="fill:#0089cf;fill-rule:nonzero;fill-opacity:1;stroke:none;"
     clip-path="url(#clipEmfPath1)"
     d="  M 1236.3908,189.99859   L 1236.3908,190.87859   C 1236.3908,191.35858 1236.1508,191.59858 1235.6708,191.59858   L 1233.9109,191.59858   C 1233.3509,191.59858 1233.1909,191.35858 1233.1909,190.87859   L 1233.1909,190.15859   C 1233.1909,187.99861 1231.9909,186.55862 1227.6709,186.55862   C 1223.4309,186.55862 1222.2309,187.99861 1222.2309,190.15859   L 1222.2309,201.8385   C 1222.2309,204.07849 1223.4309,205.51848 1227.6709,205.51848   C 1231.9909,205.51848 1233.1909,204.07849 1233.1909,201.8385   L 1233.1909,200.79851   C 1233.1909,200.23852 1233.3509,200.07852 1233.9109,200.07852   L 1235.6708,200.07852   C 1236.1508,200.07852 1236.3908,200.23852 1236.3908,200.79851   L 1236.3908,202.0785   C 1236.3908,205.75848 1234.1509,208.23846 1227.5909,208.23846   C 1221.031,208.23846 1218.871,205.75848 1218.871,202.0785   L 1218.871,189.99859   C 1218.871,186.31862 1221.031,183.75864 1227.6709,183.75864   C 1234.2309,183.75864 1236.3908,186.31862 1236.3908,189.99859   z "
     id="path58" />
  <path
     style="fill:#0089cf;fill-rule:nonzero;fill-opacity:1;stroke:none;"
     clip-path="url(#clipEmfPath1)"
     d="  M 1245.1908,193.99856   L 1256.3107,193.99856   L 1256.3107,190.15859   C 1256.3107,187.99861 1254.9507,186.47862 1250.7107,186.47862   C 1246.3908,186.47862 1245.1908,187.99861 1245.1908,190.15859   z  M 1259.4307,195.91855   C 1259.4307,196.31855 1259.1907,196.55854 1258.7107,196.55854   L 1245.1908,196.55854   L 1245.1908,201.9185   C 1245.1908,204.07849 1246.3108,205.59848 1250.7107,205.59848   C 1255.1107,205.59848 1256.3107,204.07849 1256.3107,201.9185   L 1256.3107,201.03851   C 1256.3107,200.55851 1256.4707,200.39852 1256.9507,200.39852   L 1258.7107,200.39852   C 1259.1907,200.39852 1259.4307,200.55851 1259.4307,201.03851   L 1259.4307,202.0785   C 1259.4307,205.75848 1257.2707,208.23846 1250.6307,208.23846   C 1244.0708,208.23846 1241.9108,205.75848 1241.9108,202.0785   L 1241.9108,189.99859   C 1241.9108,186.31862 1244.0708,183.75864 1250.7107,183.75864   C 1257.2707,183.75864 1259.4307,186.31862 1259.4307,189.99859   z "
     id="path59" />
  <path
     style="fill:#0089cf;fill-rule:nonzero;fill-opacity:1;stroke:none;"
     clip-path="url(#clipEmfPath1)"
     d="  M 1278.8705,189.2786   C 1278.8705,187.35861 1277.1905,186.31862 1273.5906,186.31862   C 1269.9906,186.31862 1268.3106,187.35861 1268.3106,189.2786   L 1268.3106,190.47859   C 1268.3106,191.99858 1269.7506,192.79857 1270.7906,193.11857   L 1278.1505,195.51855   C 1280.5505,196.31855 1282.3105,197.83853 1282.3105,200.07852   L 1282.3105,202.8785   C 1282.3105,205.75848 1279.6705,208.23846 1273.5906,208.23846   C 1267.3506,208.23846 1264.8706,205.75848 1264.8706,202.8785   L 1264.8706,201.51851   C 1264.8706,201.11851 1265.1106,200.87851 1265.5906,200.87851   L 1267.3506,200.87851   C 1267.8306,200.87851 1267.9906,201.11851 1267.9906,201.51851   L 1267.9906,202.7185   C 1267.9906,204.63848 1269.9106,205.75848 1273.5906,205.75848   C 1277.1905,205.75848 1279.1905,204.63848 1279.1905,202.7185   L 1279.1905,200.95851   C 1279.1905,199.51852 1278.0705,198.79853 1276.3905,198.23853   L 1269.0306,195.75855   C 1267.3506,195.19855 1265.3506,193.51857 1265.3506,191.11858   L 1265.3506,189.2786   C 1265.3506,186.39862 1267.5106,183.75864 1273.5906,183.75864   C 1279.6705,183.75864 1281.9905,186.39862 1281.9905,189.2786   L 1281.9905,190.63859   C 1281.9905,191.11858 1281.7505,191.27858 1281.2705,191.27858   L 1279.5105,191.27858   C 1279.1105,191.27858 1278.8705,191.11858 1278.8705,190.63859   z "
     id="path60" />
</svg>
