<?xml version="1.0" encoding="UTF-8"?>
<svg version="1.1" xmlns="http://www.w3.org/2000/svg" width="361" height="363">
<path d="M0 0 C119.13 0 238.26 0 361 0 C361 119.79 361 239.58 361 363 C241.87 363 122.74 363 0 363 C0 243.21 0 123.42 0 0 Z " fill="#FEFEFE" transform="translate(0,0)"/>
<path d="M0 0 C0.92804947 -0.00571014 1.85609894 -0.01142029 2.81227112 -0.01730347 C3.83358627 -0.01842133 4.85490143 -0.01953918 5.90716553 -0.02069092 C6.98046616 -0.02565582 8.05376678 -0.03062073 9.15959167 -0.03573608 C12.72356804 -0.05038546 16.28749989 -0.05716481 19.85150146 -0.06268311 C22.32291669 -0.06843286 24.79433189 -0.07419061 27.26574707 -0.07995605 C32.45432748 -0.09047435 37.64289236 -0.0963114 42.83148193 -0.09979248 C49.48071089 -0.10527487 56.12972974 -0.12929417 62.77890396 -0.15776443 C67.8867045 -0.17638803 72.99445567 -0.1815963 78.10228729 -0.18312836 C80.55349599 -0.1861567 83.00470377 -0.1941913 85.45587921 -0.20731354 C88.88641437 -0.22436559 92.31644895 -0.22249539 95.74700928 -0.21600342 C96.76022751 -0.2252182 97.77344574 -0.23443298 98.81736755 -0.243927 C104.10827311 -0.21255794 108.12658025 -0.03999865 112.58587646 3.14044189 C116.66346444 7.60608822 116.00868796 13.0015576 115.97406006 18.71051025 C115.97931702 19.77449539 115.98457397 20.83848053 115.98999023 21.93470764 C116.00318832 25.45004987 115.99445186 28.96493884 115.98431396 32.48028564 C115.9863349 34.92499376 115.98924649 37.36970129 115.99301147 39.81440735 C115.99743471 44.9380365 115.99100415 50.06150872 115.97698975 55.18511963 C115.95990715 61.75022611 115.96973352 68.3149644 115.98770714 74.88005733 C115.99855256 79.92868316 115.99509494 84.97722184 115.98732376 90.0258503 C115.9853234 92.44634609 115.98777527 94.86684981 115.99476242 97.28733635 C116.00238809 100.67209674 115.99075583 104.05626282 115.97406006 107.440979 C115.98013275 108.44013336 115.98620544 109.43928772 115.99246216 110.46871948 C115.94468357 115.70198211 115.79635134 119.77110973 112.58587646 124.14044189 C107.41200448 127.94870949 101.95641581 127.57199895 95.7946167 127.54449463 C94.18138016 127.55478951 94.18138016 127.55478951 92.53555298 127.56529236 C88.98839029 127.58356114 85.44166975 127.5797233 81.89447021 127.57403564 C79.42637488 127.57859668 76.95828081 127.58390202 74.4901886 127.58992004 C69.32126704 127.59885079 64.15249999 127.59642745 58.98358154 127.58648682 C52.35667675 127.5749846 45.73030381 127.59522867 39.10346889 127.62440395 C34.0085562 127.64273801 28.9137717 127.64247924 23.8188343 127.63676643 C21.37517614 127.63661295 18.93150943 127.64267984 16.48788261 127.65505791 C13.07416109 127.66991643 9.66143192 127.65932835 6.2477417 127.64215088 C5.23721237 127.65181885 4.22668304 127.66148682 3.18553162 127.67144775 C-1.14389997 127.62577361 -3.69468544 127.57660794 -7.45549011 125.29658508 C-10.48898555 121.95719015 -11.6631101 119.98274071 -11.6882782 115.53013611 C-11.69825333 114.58388367 -11.70822845 113.63763123 -11.71850586 112.66270447 C-11.71917053 111.62628311 -11.71983521 110.58986176 -11.72052002 109.52203369 C-11.72884354 108.4290799 -11.73716705 107.3361261 -11.7457428 106.21005249 C-11.76989491 102.5865526 -11.7786216 98.96323256 -11.78521729 95.33966064 C-11.79418 92.82483362 -11.80330177 90.31000716 -11.81257629 87.79518127 C-11.82908326 82.51841492 -11.83680258 77.24169259 -11.83966064 71.96490479 C-11.84329376 65.87254274 -11.87317174 59.78068515 -11.91506523 53.68847722 C-11.95398692 47.82210968 -11.96525414 41.95594169 -11.9663868 36.08945656 C-11.97059569 33.59636514 -11.98305657 31.10327354 -12.00390434 28.61026573 C-12.03075041 25.12207494 -12.02601201 21.63527494 -12.01348877 18.14703369 C-12.02832306 17.11668503 -12.04315735 16.08633636 -12.05844116 15.02476501 C-12.01159512 10.44404794 -11.94826853 7.17003084 -9.00166321 3.51502991 C-5.71152929 0.49567038 -4.32479465 0.01590377 0 0 Z " fill="#088ACD" transform="translate(21.41412353515625,18.85955810546875)"/>
<path d="M0 0 C0.97710937 -0.04898438 1.95421875 -0.09796875 2.9609375 -0.1484375 C5.625 0.375 5.625 0.375 7.328125 2.51171875 C8.68001786 5.49647016 9.88194372 8.48221744 11 11.5625 C12.52379383 15.62747097 14.12096879 19.52448721 16.125 23.375 C18.05425779 27.08927201 19.60401151 30.82652618 21.0625 34.75 C23.10314684 40.21097629 25.53499439 45.32580742 28.203125 50.50390625 C29.96785163 54.06729656 31.4402592 57.70339741 32.86328125 61.4140625 C33.60314272 63.40879068 33.60314272 63.40879068 34.625 65.375 C34.893125 64.65699219 35.16125 63.93898437 35.4375 63.19921875 C38.24239624 55.79023297 41.22718678 48.477016 44.32128906 41.18505859 C46.30960822 36.49909898 48.27898099 31.80624603 50.22265625 27.1015625 C50.66327393 26.03655518 51.1038916 24.97154785 51.55786133 23.87426758 C52.41539278 21.79950241 53.27080917 19.72386137 54.1237793 17.6472168 C60.32076064 2.67923936 60.32076064 2.67923936 62.625 0.375 C64.45615883 0.27648829 66.29119933 0.24527371 68.125 0.25 C69.1253125 0.24742188 70.125625 0.24484375 71.15625 0.2421875 C73.625 0.375 73.625 0.375 74.625 1.375 C74.72029612 4.38850238 74.75051904 7.37904106 74.73852539 10.39282227 C74.73867142 11.33906464 74.73881744 12.28530701 74.7389679 13.26022339 C74.73826836 16.40397392 74.73047409 19.54766601 74.72265625 22.69140625 C74.72079221 24.86474068 74.71936824 27.03807552 74.71836853 29.21141052 C74.71454221 34.94401195 74.70471097 40.67658823 74.69366455 46.40917969 C74.68345287 52.25390279 74.67887143 58.09862993 74.67382812 63.94335938 C74.6630888 75.420584 74.64601102 86.89778991 74.625 98.375 C72.47923363 98.40185938 70.33337355 98.42133088 68.1875 98.4375 C66.99253906 98.44910156 65.79757813 98.46070313 64.56640625 98.47265625 C61.625 98.375 61.625 98.375 60.625 97.375 C60.50155973 95.50403889 60.44707606 93.62849072 60.41967773 91.75366211 C60.3897599 89.95190773 60.3897599 89.95190773 60.35923767 88.11375427 C60.34252518 86.8064888 60.32581268 85.49922333 60.30859375 84.15234375 C60.28803042 82.80855153 60.26703412 81.46476588 60.24562073 80.12098694 C60.19033581 76.57825013 60.14095502 73.03545433 60.09277344 69.49261475 C60.04260513 65.8797885 59.98689475 62.26704828 59.93164062 58.65429688 C59.82398063 51.56127253 59.7225532 44.46817112 59.625 37.375 C59.038396 38.85564941 59.038396 38.85564941 58.43994141 40.36621094 C55.73624376 47.17095749 53.00951019 53.94847001 50 60.625 C47.58303853 66.05867515 45.38099838 71.51136671 43.44921875 77.140625 C42.64765948 79.31357239 41.70112271 81.32613754 40.625 83.375 C38.85492286 83.45614106 37.08377902 83.51425505 35.3125 83.5625 C34.32636719 83.59730469 33.34023437 83.63210937 32.32421875 83.66796875 C29.625 83.375 29.625 83.375 27.890625 82.08203125 C23.9030921 76.70378471 21.82779095 70.3407457 19.6171875 64.0859375 C18.47140533 60.95533582 17.15081777 57.94238284 15.76953125 54.91015625 C14.28584008 51.62375498 12.85962981 48.3133502 11.4375 45 C10.92832031 43.81664062 10.41914063 42.63328125 9.89453125 41.4140625 C8.625 38.375 8.625 38.375 7.625 35.375 C7.295 56.165 6.965 76.955 6.625 98.375 C2.665 98.375 -1.295 98.375 -5.375 98.375 C-7.27251904 96.47748096 -6.50171315 93.69442229 -6.51052856 91.16940308 C-6.50850433 90.2768985 -6.5064801 89.38439392 -6.50439453 88.46484375 C-6.50614685 87.52996124 -6.50789917 86.59507874 -6.50970459 85.63186646 C-6.51412474 82.52539238 -6.51118454 79.41897471 -6.5078125 76.3125 C-6.50848549 74.16398101 -6.50945548 72.01546209 -6.51071167 69.86694336 C-6.51218886 65.35757728 -6.51003339 60.84823097 -6.50537109 56.33886719 C-6.4996738 50.54451423 -6.50295269 44.75020758 -6.50894356 38.95585632 C-6.51254859 34.51737109 -6.51141085 30.07889693 -6.50881577 25.64041138 C-6.50814634 23.50326533 -6.50897547 21.36611829 -6.51129532 19.22897339 C-6.5138209 16.24767374 -6.50998259 13.2664502 -6.50439453 10.28515625 C-6.50641876 9.39265167 -6.50844299 8.50014709 -6.51052856 7.58059692 C-6.48483546 0.22126735 -6.48483546 0.22126735 0 0 Z " fill="#EC522C" transform="translate(188.375,32.625)"/>
<path d="M0 0 C4.54912438 3.08114453 7.3992601 5.61910906 9 11 C9.16217657 13.62781027 9.23546721 16.12947554 9.1875 18.75 C9.18685547 19.43449219 9.18621094 20.11898437 9.18554688 20.82421875 C9.14067963 25.85932037 9.14067963 25.85932037 8 27 C6.00200428 27.09873816 4.00042842 27.12971799 2 27.125 C0.906875 27.12757812 -0.18625 27.13015625 -1.3125 27.1328125 C-4 27 -4 27 -5 26 C-5.1054632 24.0635785 -5.1843784 22.12568072 -5.25 20.1875 C-5.570294 15.32307375 -5.570294 15.32307375 -8.1875 11.3125 C-15.20992272 8.0353694 -24.4977981 7.90111098 -32 9.8125 C-35.66815699 11.26447881 -37.25856204 12.51712407 -39 16 C-39.11140777 17.85216428 -39.15924472 19.70829383 -39.17700195 21.5637207 C-39.18983719 22.72865555 -39.20267242 23.89359039 -39.21589661 25.09382629 C-39.22328354 26.35837143 -39.23067047 27.62291656 -39.23828125 28.92578125 C-39.246353 30.22065964 -39.25442474 31.51553802 -39.26274109 32.84965515 C-39.27776822 35.59434885 -39.2876059 38.33901667 -39.29516602 41.08374023 C-39.30622323 44.59445768 -39.34061448 48.10454001 -39.38033772 51.61503315 C-39.41281689 54.96859037 -39.41728395 58.32207889 -39.42578125 61.67578125 C-39.44328934 62.93425369 -39.46079742 64.19272614 -39.47883606 65.48933411 C-39.47444771 67.2509211 -39.47444771 67.2509211 -39.4699707 69.0480957 C-39.47583694 70.0790889 -39.48170319 71.11008209 -39.48774719 72.1723175 C-38.77367191 76.31212231 -36.58584623 78.83352199 -33.2421875 81.29296875 C-29.89431038 82.34865823 -26.59924106 82.32843689 -23.125 82.3125 C-22.43019531 82.32861328 -21.73539062 82.34472656 -21.01953125 82.36132812 C-16.23143312 82.36583669 -13.13197863 81.33734313 -9 79 C-8.34 79 -7.68 79 -7 79 C-6.09166031 76.27498092 -5.81640015 74.37766029 -5.68359375 71.55078125 C-5.64548584 70.78677002 -5.60737793 70.02275879 -5.56811523 69.2355957 C-5.52501221 68.27097412 -5.48190918 67.30635254 -5.4375 66.3125 C-5.293125 63.239375 -5.14875 60.16625 -5 57 C-11.27 57 -17.54 57 -24 57 C-24 53.04 -24 49.08 -24 45 C-19.46102295 44.97534608 -14.92208457 44.95716211 -10.38305664 44.94506836 C-8.83780234 44.9400286 -7.29255284 44.9331968 -5.74731445 44.92456055 C-3.53074971 44.91247924 -1.31424782 44.90676827 0.90234375 44.90234375 C1.5971434 44.89718246 2.29194305 44.89202118 3.00779724 44.88670349 C4.6722933 44.88650723 6.33665499 44.93810871 8 45 C10.69071739 47.69071739 9.31872095 55.3365428 9.35009766 59.19799805 C9.36652184 60.67504786 9.39362934 62.15202279 9.43212891 63.62866211 C9.66273737 72.52513572 9.71228442 80.61890423 4 88 C1.24609375 90.25390625 1.24609375 90.25390625 -1.5625 91.5625 C-2.49191406 92.01753906 -3.42132813 92.47257812 -4.37890625 92.94140625 C-10.41792059 95.38041204 -16.17693669 95.25402301 -22.625 95.3125 C-24.18927734 95.35600586 -24.18927734 95.35600586 -25.78515625 95.40039062 C-35.48957184 95.47914056 -42.64629873 93.76653641 -49.73120117 86.85131836 C-55.56505135 80.14177213 -55.25736028 73.18251963 -55.08984375 64.7734375 C-55.08828416 63.21505742 -55.0898519 61.65667141 -55.09437561 60.09829712 C-55.09410793 56.84815182 -55.06313997 53.60026237 -55.00854492 50.35058594 C-54.94036115 46.20299459 -54.93888278 42.058679 -54.95909786 37.91068077 C-54.96916144 34.69834701 -54.94914864 31.48674894 -54.91971016 28.27455521 C-54.90823738 26.74610883 -54.90467474 25.21758027 -54.9094677 23.68909836 C-54.91698005 9.36931995 -54.91698005 9.36931995 -49.66529846 3.46963501 C-36.81298356 -7.87260325 -14.47014683 -9.03201975 0 0 Z " fill="#EC542E" transform="translate(328,37)"/>
<path d="M0 0 C2.9375 2.4375 2.9375 2.4375 5 5 C5.495 5.495 5.495 5.495 6 6 C6.45898474 9.94726878 6.11886699 11.78276033 4.1875 15.3125 C2 18 2 18 -1 19 C-7.2519084 19.46310433 -7.2519084 19.46310433 -10.625 17.375 C-11.800625 16.694375 -11.800625 16.694375 -13 16 C-15.78223378 16.69485264 -15.78223378 16.69485264 -18 18 C-18.0825 19.093125 -18.165 20.18625 -18.25 21.3125 C-19 25 -19 25 -20.75 26.9375 C-24.07441005 28.5073603 -26.63007141 28.40292017 -30.125 27.375 C-30.74375 27.25125 -31.3625 27.1275 -32 27 C-35.15021598 28.69098428 -35.15021598 28.69098428 -36 31.5 C-37 34 -37 34 -40 36 C-40.969375 35.95875 -41.93875 35.9175 -42.9375 35.875 C-46.08331796 35.69917222 -46.08331796 35.69917222 -48.25 37.8125 C-50.11640855 40.08076407 -50.11640855 40.08076407 -52 43 C-53.05703125 43.27972656 -54.1140625 43.55945313 -55.203125 43.84765625 C-59.75567177 45.22934483 -62.27669533 47.30335332 -65.75 50.4375 C-66.31332031 50.92798828 -66.87664062 51.41847656 -67.45703125 51.92382812 C-68.98749711 53.26434255 -70.49484725 54.63112459 -72 56 C-72.64453125 56.50660156 -73.2890625 57.01320312 -73.953125 57.53515625 C-75.2270204 58.99382424 -75.2270204 58.99382424 -74.875 61.16015625 C-73.94301662 64.18494161 -72.90744908 67.15528002 -71.82788086 70.13012695 C-68.8069375 78.54974822 -66.11330266 86.9265354 -67 96 C-68.41550115 98.83501222 -69.76311198 100.76311198 -72 103 C-74.625 102.625 -74.625 102.625 -77 102 C-77 101.34 -77 100.68 -77 100 C-76.34 99.67 -75.68 99.34 -75 99 C-74.38287447 90.10310694 -75.82990596 82.32864281 -78.02734375 73.78515625 C-78.77871822 70.86113271 -79.44856128 67.96615985 -80 65 C-83.52381687 67.54604597 -83.52381687 67.54604597 -86 71 C-84.68 71.66 -83.36 72.32 -82 73 C-82 73.99 -82 74.98 -82 76 C-82.90492188 76.00386719 -82.90492188 76.00386719 -83.828125 76.0078125 C-86.34463417 76.12957907 -88.56649943 76.33403341 -91 77 C-93.61974426 79.88274079 -93.61974426 79.88274079 -95 83 C-91.04 83 -87.08 83 -83 83 C-83 84.32 -83 85.64 -83 87 C-88.28 87 -93.56 87 -99 87 C-99.66 89.31 -100.32 91.62 -101 94 C-95.06 94 -89.12 94 -83 94 C-82.67 95.32 -82.34 96.64 -82 98 C-89.26 98.33 -96.52 98.66 -104 99 C-106.36473851 106.09421554 -107.34799528 112.29301299 -104.75 119.4375 C-103.07491981 122.06008421 -103.07491981 122.06008421 -100.8125 124.1875 C-100.214375 124.785625 -99.61625 125.38375 -99 126 C-99 126.99 -99 127.98 -99 129 C-102.2313547 129.56548707 -104.29409574 129.45863836 -107.07421875 127.65234375 C-111.75896246 123.71230976 -115.50236465 120.08771891 -116.2734375 113.75390625 C-116.9313014 97.53503098 -107.06487584 83.8198857 -97 72 C-96.34902344 71.15695313 -95.69804687 70.31390625 -95.02734375 69.4453125 C-92.54160589 66.44710075 -89.73203255 64.17619684 -86.70703125 61.74609375 C-84.74907845 59.74333654 -84.18223018 58.78551843 -84 56 C-84.72074674 53.60559852 -84.72074674 53.60559852 -86 51.125 C-86.46792969 50.15691406 -86.93585938 49.18882812 -87.41796875 48.19140625 C-87.94003906 47.13824219 -88.46210938 46.08507812 -89 45 C-89.79857422 43.31197266 -89.79857422 43.31197266 -90.61328125 41.58984375 C-95.82583678 30.76929744 -101.9078384 20.90137776 -110 12 C-109.67 11.34 -109.34 10.68 -109 10 C-96.63148732 21.42113724 -84.39289633 36.82131101 -79 53 C-74.1946674 50.8991762 -70.14899038 47.55617822 -65.95703125 44.45703125 C-61.20991254 41 -61.20991254 41 -59 41 C-58.67 39.35 -58.34 37.7 -58 36 C-57.278125 35.87625 -56.55625 35.7525 -55.8125 35.625 C-51.73567386 34.75921529 -51.73567386 34.75921529 -48 33 C-46.68998504 29.49895468 -46.68998504 29.49895468 -46 26 C-45 25 -45 25 -42.125 24.875 C-39 25 -39 25 -36 26 C-33.85744207 25.61067144 -33.85744207 25.61067144 -32 25 C-32.226875 23.9275 -32.45375 22.855 -32.6875 21.75 C-33 18 -33 18 -32.0625 15.5625 C-29.41598725 13.5575661 -27.25824479 13.57292074 -24 13.72265625 C-21.46984153 14.07351807 -19.32744665 14.9731853 -17 16 C-16.34 15.67 -15.68 15.34 -15 15 C-14.68391655 13.03792276 -14.68391655 13.03792276 -14.625 10.75 C-14.24336688 6.39244362 -13.21335635 4.11598191 -10 1 C-6.78540014 -0.60729993 -3.47611897 -0.61930855 0 0 Z " fill="#F4832E" transform="translate(231,181)"/>
<path d="M0 0 C1.48306641 0.02126953 1.48306641 0.02126953 2.99609375 0.04296875 C3.98738281 0.04941406 4.97867188 0.05585937 6 0.0625 C8.43359375 0.23046875 8.43359375 0.23046875 9.43359375 1.23046875 C9.52888987 4.24397113 9.55911279 7.23450981 9.54711914 10.24829102 C9.54726517 11.19453339 9.54741119 12.14077576 9.54756165 13.11569214 C9.54686211 16.25944267 9.53906784 19.40313476 9.53125 22.546875 C9.52938596 24.72020943 9.52796199 26.89354427 9.52696228 29.06687927 C9.52313596 34.7994807 9.51330472 40.53205698 9.5022583 46.26464844 C9.49204662 52.10937154 9.48746518 57.95409868 9.48242188 63.79882812 C9.47168255 75.27605275 9.45460477 86.75325866 9.43359375 98.23046875 C5.14359375 98.23046875 0.85359375 98.23046875 -3.56640625 98.23046875 C-5.24308578 94.87710969 -4.71359397 91.09413415 -4.71166992 87.40625 C-4.71502853 86.4923349 -4.71838715 85.5784198 -4.72184753 84.6368103 C-4.73137322 81.60551609 -4.73330134 78.57427701 -4.734375 75.54296875 C-4.73758605 73.443115 -4.74095 71.34326147 -4.74446106 69.2434082 C-4.75045609 64.83837363 -4.75230053 60.43335868 -4.75170898 56.02832031 C-4.75160725 50.37194238 -4.76526973 44.71568965 -4.78248119 39.05934143 C-4.79357496 34.72203996 -4.79562902 30.38476904 -4.79509926 26.04745483 C-4.79628295 23.96137052 -4.80072634 21.87528551 -4.80843163 19.78921509 C-4.81818032 16.87761542 -4.81537403 13.96629118 -4.80932617 11.0546875 C-4.81775543 9.75173233 -4.81775543 9.75173233 -4.82635498 8.42245483 C-4.7839595 0.42960976 -4.7839595 0.42960976 0 0 Z " fill="#EB542F" transform="translate(159.56640625,32.76953125)"/>
<path d="M0 0 C2.05078125 0.03255208 4.1015625 0.06510417 6.15234375 0.09765625 C7.33271228 10.80840768 4.09594609 19.72834029 -2.203125 28.3046875 C-12.4664343 40.56418124 -26.37983706 48.23482712 -40.14526367 55.92529297 C-52.84837388 63.11644247 -65.62581651 71.94157508 -70.84765625 86.09765625 C-71.73385961 89.74401383 -72.37365122 93.37636301 -72.84765625 97.09765625 C-79 97.1953125 -79 97.1953125 -80.84765625 97.09765625 C-82.48940041 95.45591209 -82.21509581 93.68025376 -82.34765625 91.41015625 C-82.22101069 80.57492507 -75.6637927 70.922223 -68.31640625 63.37890625 C-59.73188043 55.44636973 -50.07103022 49.75682896 -40.01318359 43.91503906 C-17.55769857 31.30589663 -17.55769857 31.30589663 -4.33203125 10.24609375 C-3.64744643 7.20962883 -3.23362736 4.1854251 -2.84765625 1.09765625 C-1.84765625 0.09765625 -1.84765625 0.09765625 0 0 Z " fill="#F8F9FA" transform="translate(110.84765625,33.90234375)"/>
<path d="M0 0 C1.1446875 0.0103125 2.289375 0.020625 3.46875 0.03125 C11.91022246 0.19014831 11.91022246 0.19014831 15.375 2.5 C15.23473717 4.81284456 15.08764442 7.12527591 14.9375 9.4375 C14.85628906 10.72527344 14.77507812 12.01304687 14.69140625 13.33984375 C14.375 16.5 14.375 16.5 13.375 17.5 C11.52325294 17.65786308 9.6659089 17.75107356 7.80859375 17.81640625 C6.68388672 17.85830078 5.55917969 17.90019531 4.40039062 17.94335938 C3.21638672 17.98267578 2.03238281 18.02199219 0.8125 18.0625 C-0.37537109 18.10568359 -1.56324219 18.14886719 -2.78710938 18.19335938 C-5.73294784 18.29983546 -8.6788743 18.40184841 -11.625 18.5 C-11.955 20.81 -12.285 23.12 -12.625 25.5 C-4.705 25.5 3.215 25.5 11.375 25.5 C11.045 26.82 10.715 28.14 10.375 29.5 C6.44234104 29.54947698 2.50980286 29.58575578 -1.4230957 29.60986328 C-3.41819618 29.62485495 -5.41320946 29.65026731 -7.40820312 29.67578125 C-8.66181641 29.68222656 -9.91542969 29.68867188 -11.20703125 29.6953125 C-12.36436768 29.70578613 -13.5217041 29.71625977 -14.71411133 29.72705078 C-17.625 29.5 -17.625 29.5 -20.625 27.5 C-20.19094726 22.23425495 -19.63530576 16.97889529 -18.875 11.75 C-18.75640625 10.88890625 -18.6378125 10.0278125 -18.515625 9.140625 C-15.17950233 -0.75068606 -9.41017205 -0.34141214 0 0 Z " fill="#5A5555" transform="translate(85.625,229.5)"/>
<path d="M0 0 C0.721875 0.00257812 1.44375 0.00515625 2.1875 0.0078125 C2.909375 0.00523438 3.63125 0.00265625 4.375 0 C6.1875 0.1328125 6.1875 0.1328125 7.1875 1.1328125 C7.40825216 3.1106325 7.61379122 5.09015637 7.8125 7.0703125 C9.25157751 16.92745241 15.02436235 24.37174567 22.84985352 30.41699219 C24.65604592 31.71988437 26.47809865 32.99497199 28.3125 34.2578125 C35.74107143 39.40066964 35.74107143 39.40066964 38.1875 42.1328125 C31.90868676 46.19557401 31.90868676 46.19557401 28.71875 45.91796875 C18.49090337 42.74544225 8.69609671 33.09595291 3.1875 24.1328125 C-0.89165183 16.19500354 -3.10431428 10.03314804 -2.8125 1.1328125 C-1.8125 0.1328125 -1.8125 0.1328125 0 0 Z " fill="#F8F9FA" transform="translate(31.8125,33.8671875)"/>
<path d="M0 0 C3.21485019 2.08965262 6.09161477 4.50709838 9 7 C10.28197266 8.06347656 10.28197266 8.06347656 11.58984375 9.1484375 C20.00696968 16.36311687 26.02362398 23.86810431 28 35 C28.20642186 38.35320847 28.19261694 41.64703842 28 45 C21.84765625 45.09765625 21.84765625 45.09765625 20 45 C18.44281087 43.44281087 18.54216018 41.64784857 18.1875 39.5 C15.6362747 26.29032236 8.5623647 18.91136383 -2 11 C-5.26779421 8.87354693 -8.58877529 6.88690304 -12 5 C-11 2 -11 2 -8.8125 0.25 C-5.11874021 -1.39167102 -3.83884533 -1.32883108 0 0 Z " fill="#F9FAFA" transform="translate(89,86)"/>
<path d="M0 0 C7.54498233 -0.02312851 15.08996101 -0.04091769 22.63497066 -0.05181217 C26.13808885 -0.05703989 29.64118285 -0.0641355 33.14428711 -0.07543945 C37.16780841 -0.08834206 41.19130414 -0.09322912 45.21484375 -0.09765625 C46.47836166 -0.10281754 47.74187958 -0.10797882 49.04368591 -0.11329651 C50.204814 -0.11337204 51.36594208 -0.11344757 52.56225586 -0.11352539 C54.1044706 -0.11685631 54.1044706 -0.11685631 55.67784119 -0.12025452 C58 0 58 0 59 1 C59.125 4.5 59.125 4.5 59 8 C57.2817691 9.7182309 55.01402251 9.12754321 52.66992188 9.12939453 C51.53204224 9.13254669 50.3941626 9.13569885 49.22180176 9.13894653 C47.98329468 9.1369223 46.7447876 9.13489807 45.46875 9.1328125 C44.20736206 9.13376923 42.94597412 9.13472595 41.6463623 9.13571167 C38.97302862 9.13639375 36.29978563 9.13503529 33.62646484 9.13037109 C30.19293309 9.12467381 26.7594795 9.12795301 23.32595062 9.13394356 C20.06104757 9.13841762 16.79615407 9.13528883 13.53125 9.1328125 C12.29274292 9.13483673 11.05423584 9.13686096 9.77819824 9.13894653 C8.6403186 9.13579437 7.50243896 9.13264221 6.33007812 9.12939453 C5.32271606 9.12859894 4.315354 9.12780334 3.27746582 9.12698364 C1 9 1 9 0 8 C-0.14115161 5.32941149 -0.04247107 2.67567762 0 0 Z " fill="#FDFDFD" transform="translate(44,37)"/>
<path d="M0 0 C1.13787964 -0.00315216 2.27575928 -0.00630432 3.44812012 -0.009552 C4.6866272 -0.00752777 5.92513428 -0.00550354 7.20117188 -0.00341797 C8.46255981 -0.00437469 9.72394775 -0.00533142 11.02355957 -0.00631714 C13.69689325 -0.00699922 16.37013624 -0.00564076 19.04345703 -0.00097656 C22.47698878 0.00472073 25.91044237 0.00144152 29.34397125 -0.00454903 C32.6088743 -0.00902309 35.87376781 -0.0058943 39.13867188 -0.00341797 C40.37717896 -0.0054422 41.61568604 -0.00746643 42.89172363 -0.009552 C44.02960327 -0.00639984 45.16748291 -0.00324768 46.33984375 0 C47.34720581 0.00079559 48.35456787 0.00159119 49.39245605 0.00241089 C51.66992188 0.12939453 51.66992188 0.12939453 52.66992188 1.12939453 C52.79492188 4.62939453 52.79492188 4.62939453 52.66992188 8.12939453 C50.95169097 9.84762543 48.68394439 9.25693774 46.33984375 9.25878906 C45.20196411 9.26194122 44.06408447 9.26509338 42.89172363 9.26834106 C41.65321655 9.26631683 40.41470947 9.2642926 39.13867188 9.26220703 C37.87728394 9.26316376 36.615896 9.26412048 35.31628418 9.2651062 C32.6429505 9.26578828 29.96970751 9.26442982 27.29638672 9.25976562 C23.86285497 9.25406834 20.42940138 9.25734754 16.9958725 9.26333809 C13.73096945 9.26781215 10.46607594 9.26468337 7.20117188 9.26220703 C5.96266479 9.26423126 4.72415771 9.26625549 3.44812012 9.26834106 C2.31024048 9.2651889 1.17236084 9.26203674 0 9.25878906 C-1.00736206 9.25799347 -2.01472412 9.25719788 -3.0526123 9.25637817 C-5.33007812 9.12939453 -5.33007812 9.12939453 -6.33007812 8.12939453 C-6.45507812 4.62939453 -6.45507812 4.62939453 -6.33007812 1.12939453 C-4.61184722 -0.58883637 -2.34410064 0.00185132 0 0 Z " fill="#FDFDFE" transform="translate(50.330078125,117.87060546875)"/>
<path d="M0 0 C2.97 0 5.94 0 9 0 C8.52458247 2.61479643 8.04869447 5.22949362 7.5703125 7.84375 C7.20169534 9.88376827 6.84171235 11.92537398 6.4921875 13.96875 C6.24855469 15.37640625 6.24855469 15.37640625 6 16.8125 C5.855625 17.66457031 5.71125 18.51664063 5.5625 19.39453125 C5 22 5 22 4.0390625 24.80078125 C2.79821006 28.62130059 2.07481886 32.42602213 1.375 36.375 C1.2409375 37.11105469 1.106875 37.84710938 0.96875 38.60546875 C0.64193673 40.40294172 0.32041989 42.20137633 0 44 C-2.97 44 -5.94 44 -9 44 C-8.566875 42.14375 -8.566875 42.14375 -8.125 40.25 C-7.06677993 35.52527094 -6.28881024 30.77805319 -5.5625 25.9921875 C-5 23 -5 23 -4.0390625 19.66015625 C-2.90112917 15.65172192 -2.10968474 11.65949192 -1.375 7.5625 C-1.2409375 6.83095703 -1.106875 6.09941406 -0.96875 5.34570312 C-0.64275312 3.56436303 -0.320935 1.78225902 0 0 Z " fill="#565151" transform="translate(111,215)"/>
<path d="M0 0 C12.21 0 24.42 0 37 0 C37 2.64 37 5.28 37 8 C35.23927416 9.76072584 32.9210371 9.12834784 30.5760498 9.13894653 C29.81876587 9.1369223 29.06148193 9.13489807 28.28125 9.1328125 C27.12163757 9.13424759 27.12163757 9.13424759 25.93859863 9.13571167 C24.30102456 9.13639341 22.66344781 9.13453957 21.02587891 9.13037109 C18.51068079 9.12502271 15.99566127 9.13031626 13.48046875 9.13671875 C11.89322877 9.13605797 10.3059889 9.1347768 8.71875 9.1328125 C7.96146606 9.13483673 7.20418213 9.13686096 6.4239502 9.13894653 C1.11495132 9.11495132 1.11495132 9.11495132 0 8 C0 5.36 0 2.72 0 0 Z " fill="#FCFCFC" transform="translate(55,52)"/>
<path d="M0 0 C0.75728394 0.00202423 1.51456787 0.00404846 2.2947998 0.00613403 C3.06787476 0.00517731 3.84094971 0.00422058 4.63745117 0.00323486 C6.27502524 0.00255313 7.91260199 0.00440697 9.5501709 0.00857544 C12.06536901 0.01392382 14.58038854 0.00863027 17.09558105 0.00222778 C18.68282103 0.00288857 20.2700609 0.00416973 21.8572998 0.00613403 C22.99322571 0.00309769 22.99322571 0.00309769 24.15209961 0 C29.46109849 0.02399522 29.46109849 0.02399522 30.5760498 1.13894653 C30.7010498 4.63894653 30.7010498 4.63894653 30.5760498 8.13894653 C29.5760498 9.13894653 29.5760498 9.13894653 26.15783691 9.25247192 C24.63967992 9.25231281 23.12151752 9.24661879 21.60339355 9.23660278 C20.80575089 9.23518784 20.00810822 9.23377289 19.18629456 9.23231506 C16.62867545 9.2266997 14.07114263 9.21414465 11.5135498 9.20144653 C9.78373336 9.19643351 8.05391554 9.19187026 6.32409668 9.18777466 C2.07471427 9.17672528 -2.17460331 9.1594504 -6.4239502 9.13894653 C-6.52160645 2.98660278 -6.52160645 2.98660278 -6.4239502 1.13894653 C-4.66322436 -0.6217793 -2.34498729 0.0105987 0 0 Z " fill="#FDFDFD" transform="translate(61.4239501953125,102.86105346679688)"/>
<path d="M0 0 C6.66666667 0 13.33333333 0 20 0 C20.33 1.65 20.66 3.3 21 5 C14.565 5.495 14.565 5.495 8 6 C7.72285156 7.32515625 7.44570312 8.6503125 7.16015625 10.015625 C6.79431107 11.7604251 6.42842343 13.50521631 6.0625 15.25 C5.88009766 16.12269531 5.69769531 16.99539062 5.50976562 17.89453125 C5.33251953 18.73886719 5.15527344 19.58320313 4.97265625 20.453125 C4.81031494 21.22817383 4.64797363 22.00322266 4.48071289 22.80175781 C4.02691161 24.87693643 3.51519853 26.93920589 3 29 C0.03 29 -2.94 29 -6 29 C-5.54655971 26.6239729 -5.08740741 24.24928419 -4.625 21.875 C-4.49867188 21.20984375 -4.37234375 20.5446875 -4.2421875 19.859375 C-3.44131131 15.77490643 -2.32748395 11.93820238 -1 8 C-0.56699124 5.72094248 -0.56699124 5.72094248 -0.375 3.625 C-0.189375 1.830625 -0.189375 1.830625 0 0 Z " fill="#565251" transform="translate(187,230)"/>
<path d="M0 0 C2.64 0 5.28 0 8 0 C7.45101442 6.79008479 6.46063952 13.3483107 5 20 C4.81050781 20.86753906 4.62101563 21.73507813 4.42578125 22.62890625 C3.95686096 24.75401309 3.47933772 26.87721865 3 29 C0.03 29 -2.94 29 -6 29 C-4.96079788 21.99455515 -3.61508804 15.2346633 -1.6640625 8.42578125 C-0.90164169 5.64070287 -0.3865953 2.86080522 0 0 Z " fill="#5A5656" transform="translate(171,230)"/>
<path d="M0 0 C2.64 0 5.28 0 8 0 C6.31218119 10.93491124 6.31218119 10.93491124 4.9375 15.625 C3.69929527 20.08253704 3.37885798 24.39056126 3 29 C-0.3 29 -3.6 29 -7 29 C-4.7392746 19.31445564 -2.45165321 9.63945469 0 0 Z " fill="#5A5656" transform="translate(123,230)"/>
<path d="M0 0 C4.62 0 9.24 0 14 0 C14.33 0.99 14.66 1.98 15 3 C14.33333333 4.33333333 13.66666667 5.66666667 13 7 C13.020625 7.86625 13.04125 8.7325 13.0625 9.625 C13.041875 10.40875 13.02125 11.1925 13 12 C9.36804504 14.42130331 7.61650652 14.21022785 3.3125 14.125 C2.13300781 14.10695313 0.95351562 14.08890625 -0.26171875 14.0703125 C-1.16535156 14.04710937 -2.06898438 14.02390625 -3 14 C-2.40380045 9.13103697 -1.43023178 4.67209049 0 0 Z " fill="#7D7A7A" transform="translate(217,318)"/>
<path d="M0 0 C4.62 0 9.24 0 14 0 C13.54177532 3.46941546 13.10868317 6.67395049 12 10 C12 11.32 12 12.64 12 14 C10.02 14 8.04 14 6 14 C6 12.02 6 10.04 6 8 C5.01 8 4.02 8 3 8 C3.020625 8.804375 3.04125 9.60875 3.0625 10.4375 C3 13 3 13 2 14 C0.33382885 14.04063832 -1.33388095 14.042721 -3 14 C-2.4618756 8.79813078 -1.69880437 5.09641312 0 0 Z " fill="#6F6B6A" transform="translate(147,318)"/>
<path d="M0 0 C1.98 0 3.96 0 6 0 C5.67 1.65 5.34 3.3 5 5 C6.32 5 7.64 5 9 5 C9.33 3.35 9.66 1.7 10 0 C11.65 0 13.3 0 15 0 C14.58846263 4.97093824 14.20399168 9.44508386 12 14 C10.35 14 8.7 14 7 14 C7 12.02 7 10.04 7 8 C6.01 8 5.02 8 4 8 C3.67 9.98 3.34 11.96 3 14 C1.02 14 -0.96 14 -3 14 C-2.69024532 12.22868439 -2.37709575 10.45796222 -2.0625 8.6875 C-1.88847656 7.70136719 -1.71445313 6.71523438 -1.53515625 5.69921875 C-1 3 -1 3 0 0 Z " fill="#605B5B" transform="translate(210,296)"/>
<path d="M0 0 C4.62 0 9.24 0 14 0 C15 4 15 4 14.125 6.75 C12 9 12 9 9.79296875 9.31640625 C7.50881613 9.31280916 5.27348599 9.21447981 3 9 C3 10.65 3 12.3 3 14 C1.02 14 -0.96 14 -3 14 C-2.01 9.38 -1.02 4.76 0 0 Z " fill="#595554" transform="translate(180,318)"/>
<path d="M0 0 C1.48831242 0.00667405 2.97660807 0.01863442 4.46484375 0.03515625 C5.22345703 0.03966797 5.98207031 0.04417969 6.76367188 0.04882812 C8.64326246 0.06064945 10.52281274 0.07858547 12.40234375 0.09765625 C12.07234375 3.06765625 11.74234375 6.03765625 11.40234375 9.09765625 C5.79234375 9.09765625 0.18234375 9.09765625 -5.59765625 9.09765625 C-4.47563528 0.12148847 -4.47563528 0.12148847 0 0 Z " fill="#F9F9F9" transform="translate(80.59765625,233.90234375)"/>
<path d="M0 0 C1.81242052 -0.02687279 3.62495233 -0.04633715 5.4375 -0.0625 C6.44683594 -0.07410156 7.45617187 -0.08570313 8.49609375 -0.09765625 C11 0 11 0 12 1 C12.09529612 4.01350238 12.12551904 7.00404106 12.11352539 10.01782227 C12.11367142 10.96406464 12.11381744 11.91030701 12.1139679 12.88522339 C12.11326836 16.02897392 12.10547409 19.17266601 12.09765625 22.31640625 C12.09579221 24.48974068 12.09436824 26.66307552 12.09336853 28.83641052 C12.08954221 34.56901195 12.07971097 40.30158823 12.06866455 46.03417969 C12.05845287 51.87890279 12.05387143 57.72362993 12.04882812 63.56835938 C12.0380888 75.045584 12.02101102 86.52278991 12 98 C7.71 98 3.42 98 -1 98 C-1 97.67 -1 97.34 -1 97 C2.96 97 6.92 97 11 97 C11 65.65 11 34.3 11 2 C2.06459421 2.52276811 2.06459421 2.52276811 -2 4 C-1.34 2.68 -0.68 1.36 0 0 Z " fill="#E65835" transform="translate(251,33)"/>
<path d="M0 0 C1.98 0 3.96 0 6 0 C5.34 3.63 4.68 7.26 4 11 C6.31 11 8.62 11 11 11 C11.2165625 9.1128125 11.2165625 9.1128125 11.4375 7.1875 C11.73748686 4.57332877 12.15813297 2.52560108 13 0 C13.66 0 14.32 0 15 0 C14.91174084 1.39692939 14.80355166 2.79260452 14.6875 4.1875 C14.62949219 4.96480469 14.57148438 5.74210937 14.51171875 6.54296875 C13.86416642 9.65220859 13.0328638 11.54416242 11 14 C8.1171875 14.5234375 8.1171875 14.5234375 4.875 14.375 C3.79992187 14.34148437 2.72484375 14.30796875 1.6171875 14.2734375 C-1 14 -1 14 -2 13 C-1.9140625 11.07421875 -1.9140625 11.07421875 -1.625 8.6875 C-1.53476563 7.90761719 -1.44453125 7.12773437 -1.3515625 6.32421875 C-1.02512033 4.16607328 -0.56860512 2.10576641 0 0 Z " fill="#585353" transform="translate(198,318)"/>
<path d="M0 0 C3.96 0 7.92 0 12 0 C12 0.66 12 1.32 12 2 C9.69 2 7.38 2 5 2 C5 2.99 5 3.98 5 5 C6.98 5 8.96 5 11 5 C10.67 5.99 10.34 6.98 10 8 C8.02 8 6.04 8 4 8 C4 8.99 4 9.98 4 11 C5.98 11 7.96 11 10 11 C10 11.99 10 12.98 10 14 C5.71 14 1.42 14 -3 14 C-1.125 4.5 -1.125 4.5 0 0 Z " fill="#646060" transform="translate(179,296)"/>
<path d="M0 0 C4.29 0 8.58 0 13 0 C10.50127818 3.8373228 7.9156164 7.45960866 5 11 C6.65 11 8.3 11 10 11 C10 11.99 10 12.98 10 14 C5.38 14 0.76 14 -4 14 C-2.4005386 10.80107719 -1.17187081 8.84646265 1.125 6.25 C1.66382813 5.63640625 2.20265625 5.0228125 2.7578125 4.390625 C3.37269531 3.70226562 3.37269531 3.70226562 4 3 C2.68 2.67 1.36 2.34 0 2 C0 1.34 0 0.68 0 0 Z " fill="#5F5B5A" transform="translate(163,296)"/>
<path d="M0 0 C3.96 0 7.92 0 12 0 C12 0.66 12 1.32 12 2 C9.69 2 7.38 2 5 2 C5 2.99 5 3.98 5 5 C6.65 5 8.3 5 10 5 C10 5.99 10 6.98 10 8 C7.69 8 5.38 8 3 8 C3 9.32 3 10.64 3 12 C4.98 12 6.96 12 9 12 C9 12.66 9 13.32 9 14 C5.04 14 1.08 14 -3 14 C-1.125 2.25 -1.125 2.25 0 0 Z " fill="#5A5555" transform="translate(165,318)"/>
<path d="M0 0 C1.47919922 0.06960938 1.47919922 0.06960938 2.98828125 0.140625 C3.98214844 0.17671875 4.97601563 0.2128125 6 0.25 C7.13888672 0.31960938 7.13888672 0.31960938 8.30078125 0.390625 C8.30078125 1.050625 8.30078125 1.710625 8.30078125 2.390625 C5.66078125 2.390625 3.02078125 2.390625 0.30078125 2.390625 C-0.02921875 5.360625 -0.35921875 8.330625 -0.69921875 11.390625 C1.28078125 11.390625 3.26078125 11.390625 5.30078125 11.390625 C5.30078125 12.380625 5.30078125 13.370625 5.30078125 14.390625 C3.48836073 14.41749779 1.67582892 14.43696215 -0.13671875 14.453125 C-1.14605469 14.46472656 -2.15539062 14.47632813 -3.1953125 14.48828125 C-5.69921875 14.390625 -5.69921875 14.390625 -6.69921875 13.390625 C-6.68359375 11.46484375 -6.68359375 11.46484375 -6.44921875 9.078125 C-6.3821875 8.29824219 -6.31515625 7.51835937 -6.24609375 6.71484375 C-5.31035971 2.73797408 -4.19679734 0.60735128 0 0 Z " fill="#5F5B5A" transform="translate(198.69921875,295.609375)"/>
<path d="M0 0 C1.51400391 0.01740234 1.51400391 0.01740234 3.05859375 0.03515625 C4.07050781 0.04417969 5.08242187 0.05320312 6.125 0.0625 C7.29869141 0.07990234 7.29869141 0.07990234 8.49609375 0.09765625 C8.49609375 0.75765625 8.49609375 1.41765625 8.49609375 2.09765625 C6.18609375 2.42765625 3.87609375 2.75765625 1.49609375 3.09765625 C0.83609375 5.73765625 0.17609375 8.37765625 -0.50390625 11.09765625 C1.47609375 11.09765625 3.45609375 11.09765625 5.49609375 11.09765625 C5.49609375 12.08765625 5.49609375 13.07765625 5.49609375 14.09765625 C1.86609375 14.09765625 -1.76390625 14.09765625 -5.50390625 14.09765625 C-6.63153946 8.4594902 -6.63153946 8.4594902 -5.12890625 4.84765625 C-4.85304687 4.161875 -4.5771875 3.47609375 -4.29296875 2.76953125 C-3.0757606 0.19049616 -2.98390868 0.11637709 0 0 Z " fill="#5F5B5B" transform="translate(150.50390625,295.90234375)"/>
<path d="M0 0 C3.63 0 7.26 0 11 0 C11 0.66 11 1.32 11 2 C8.69 2 6.38 2 4 2 C3.34 5.3 2.68 8.6 2 12 C4.31 12 6.62 12 9 12 C9 12.66 9 13.32 9 14 C5.04 14 1.08 14 -3 14 C-2.48594831 9.03083364 -1.76615118 4.70973649 0 0 Z " fill="#575252" transform="translate(260,318)"/>
<path d="M0 0 C1.98 0 3.96 0 6 0 C5.01 3.96 4.02 7.92 3 12 C4.98 12 6.96 12 9 12 C9 12.66 9 13.32 9 14 C5.04 14 1.08 14 -3 14 C-1.125 2.25 -1.125 2.25 0 0 Z " fill="#5A5656" transform="translate(235,318)"/>
<path d="M0 0 C2.97 0 5.94 0 9 0 C8.54177532 3.46941546 8.10868317 6.67395049 7 10 C7 11.32 7 12.64 7 14 C5.02 14 3.04 14 1 14 C1 11.36 1 8.72 1 6 C1.99 6 2.98 6 4 6 C4 4.68 4 3.36 4 2 C2.35 2.33 0.7 2.66 -1 3 C-0.67 2.01 -0.34 1.02 0 0 Z " fill="#54504F" transform="translate(152,318)"/>
<path d="M0 0 C2.05078125 0.03255208 4.1015625 0.06510417 6.15234375 0.09765625 C6.48234375 0.75765625 6.81234375 1.41765625 7.15234375 2.09765625 C6.19328125 2.25234375 6.19328125 2.25234375 5.21484375 2.41015625 C4.53421875 2.63703125 3.85359375 2.86390625 3.15234375 3.09765625 C2.82234375 4.08765625 2.49234375 5.07765625 2.15234375 6.09765625 C3.14234375 6.42765625 4.13234375 6.75765625 5.15234375 7.09765625 C4.16234375 7.42765625 3.17234375 7.75765625 2.15234375 8.09765625 C1.41910579 10.11273983 1.41910579 10.11273983 1.15234375 12.09765625 C2.14234375 12.42765625 3.13234375 12.75765625 4.15234375 13.09765625 C1.18234375 13.09765625 -1.78765625 13.09765625 -4.84765625 13.09765625 C-4.54006447 11.11772084 -4.22644945 9.13872026 -3.91015625 7.16015625 C-3.73613281 6.05800781 -3.56210938 4.95585937 -3.3828125 3.8203125 C-2.65953404 0.14056734 -2.65953404 0.14056734 0 0 Z " fill="#565151" transform="translate(218.84765625,317.90234375)"/>
<path d="M0 0 C6.66666667 0 13.33333333 0 20 0 C20.33 1.65 20.66 3.3 21 5 C16.71 5 12.42 5 8 5 C7.67 3.68 7.34 2.36 7 1 C5.02 1 3.04 1 1 1 C0.67 1.99 0.34 2.98 0 4 C0 2.68 0 1.36 0 0 Z " fill="#736F6F" transform="translate(187,230)"/>
<path d="M0 0 C1.98 0 3.96 0 6 0 C5.01 4.62 4.02 9.24 3 14 C1.02 14 -0.96 14 -3 14 C-2.01 9.38 -1.02 4.76 0 0 Z " fill="#585353" transform="translate(250,318)"/>
<path d="M0 0 C1.12268565 2.75568295 1.03909704 3.88531535 0.0625 6.75 C-2 9 -2 9 -3.984375 9.31640625 C-5.99235195 9.31284601 -7.99873152 9.1640384 -10 9 C-9.75 5.625 -9.75 5.625 -9 2 C-6.19227664 -0.30634419 -3.53567531 -0.19642641 0 0 Z " fill="#7E7B7A" transform="translate(194,318)"/>
<path d="M0 0 C0.66 0.33 1.32 0.66 2 1 C0.515 2.485 0.515 2.485 -1 4 C15.335 4.495 15.335 4.495 32 5 C32 5.33 32 5.66 32 6 C20.78 6.33 9.56 6.66 -2 7 C-2.33 9.31 -2.66 11.62 -3 14 C-3.33 14 -3.66 14 -4 14 C-4.33 11.69 -4.66 9.38 -5 7 C-6.65 8.65 -8.3 10.3 -10 12 C-10.66 11.67 -11.32 11.34 -12 11 C-10.56564079 9.5385774 -9.12739414 8.08096951 -7.6875 6.625 C-6.88699219 5.81289062 -6.08648437 5.00078125 -5.26171875 4.1640625 C-3 2 -3 2 0 0 Z " fill="#3595C6" transform="translate(58,97)"/>
<path d="M0 0 C3.25696479 0.41755959 4.63443291 0.63443291 7 3 C6.46428571 6.53571429 6.46428571 6.53571429 5 8 C2.5625 8.1875 2.5625 8.1875 0 8 C-0.66 7.34 -1.32 6.68 -2 6 C-1.44444444 1.44444444 -1.44444444 1.44444444 0 0 Z " fill="#5F5B5B" transform="translate(126,216)"/>
<path d="M0 0 C0.66 0 1.32 0 2 0 C1.91174084 1.39692939 1.80355166 2.79260452 1.6875 4.1875 C1.62949219 4.96480469 1.57148438 5.74210937 1.51171875 6.54296875 C0.86359538 9.65495044 0.03971968 11.54542208 -2 14 C-4.91796875 14.48828125 -4.91796875 14.48828125 -8.1875 14.3125 C-9.27417969 14.26738281 -10.36085937 14.22226562 -11.48046875 14.17578125 C-12.31191406 14.11777344 -13.14335937 14.05976563 -14 14 C-13.0409375 13.5978125 -13.0409375 13.5978125 -12.0625 13.1875 C-9.66868314 12.11332248 -9.66868314 12.11332248 -9 9 C-9 9.66 -9 10.32 -9 11 C-6.69 11 -4.38 11 -2 11 C-1.7834375 9.1128125 -1.7834375 9.1128125 -1.5625 7.1875 C-1.26251314 4.57332877 -0.84186703 2.52560108 0 0 Z " fill="#7B7777" transform="translate(211,318)"/>
<path d="M0 0 C5.59753384 4.54799625 10.3143947 9.52331848 15 15 C14.01 15.99 13.02 16.98 12 18 C11.38511719 17.09636719 10.77023438 16.19273437 10.13671875 15.26171875 C9.32047996 14.07019776 8.50406442 12.87879785 7.6875 11.6875 C7.28337891 11.09259766 6.87925781 10.49769531 6.46289062 9.88476562 C4.82977746 7.50812127 3.25015514 5.25015514 1.20703125 3.20703125 C0.80871094 2.80871094 0.41039063 2.41039062 0 2 C0 1.34 0 0.68 0 0 Z " fill="#F48D3E" transform="translate(121,191)"/>
<path d="M0 0 C0.66 0.33 1.32 0.66 2 1 C2 1.99 2 2.98 2 4 C1.16855469 4.39832031 1.16855469 4.39832031 0.3203125 4.8046875 C-0.40414062 5.15789062 -1.12859375 5.51109375 -1.875 5.875 C-2.59429687 6.22304687 -3.31359375 6.57109375 -4.0546875 6.9296875 C-6.15135019 7.96557543 -6.15135019 7.96557543 -8 10 C-8 9.01 -8 8.02 -8 7 C-8.66 6.67 -9.32 6.34 -10 6 C-8.3811004 4.96951963 -6.75467511 3.95085322 -5.125 2.9375 C-4.22007813 2.36902344 -3.31515625 1.80054687 -2.3828125 1.21484375 C-1.20332031 0.61349609 -1.20332031 0.61349609 0 0 Z " fill="#3B97C6" transform="translate(84,81)"/>
<path d="M0 0 C0.66 0.33 1.32 0.66 2 1 C1.34 3.97 0.68 6.94 0 10 C-0.99 10 -1.98 10 -3 10 C-3.75 7.25 -3.75 7.25 -4 4 C-2.0625 1.625 -2.0625 1.625 0 0 Z " fill="#E9E9E9" transform="translate(162,322)"/>
<path d="M0 0 C2.3828125 -0.29296875 2.3828125 -0.29296875 5.125 -0.1875 C6.03507813 -0.16042969 6.94515625 -0.13335937 7.8828125 -0.10546875 C8.58148438 -0.07066406 9.28015625 -0.03585938 10 0 C10 0.99 10 1.98 10 3 C6.04 3 2.08 3 -2 3 C-1.34 2.01 -0.68 1.02 0 0 Z " fill="#4E4949" transform="translate(198,231)"/>
<path d="M0 0 C0.85851562 0.55300781 0.85851562 0.55300781 1.734375 1.1171875 C0.44624158 1.95597205 -0.84625756 2.78805533 -2.140625 3.6171875 C-2.85992187 4.08125 -3.57921875 4.5453125 -4.3203125 5.0234375 C-6.265625 6.1171875 -6.265625 6.1171875 -8.265625 6.1171875 C-8.265625 5.4571875 -8.265625 4.7971875 -8.265625 4.1171875 C-8.925625 3.7871875 -9.585625 3.4571875 -10.265625 3.1171875 C-9.02678181 2.38951747 -7.77394159 1.68563935 -6.515625 0.9921875 C-5.81953125 0.59773438 -5.1234375 0.20328125 -4.40625 -0.203125 C-2.265625 -0.8828125 -2.265625 -0.8828125 0 0 Z " fill="#3D98C7" transform="translate(70.265625,76.8828125)"/>
<path d="M0 0 C3.63 0 7.26 0 11 0 C11 0.99 11 1.98 11 3 C10.31292969 2.98839844 9.62585938 2.97679687 8.91796875 2.96484375 C8.01691406 2.95582031 7.11585938 2.94679687 6.1875 2.9375 C5.29417969 2.92589844 4.40085938 2.91429687 3.48046875 2.90234375 C0.86586209 2.88990033 0.86586209 2.88990033 -2 4 C-1.34 2.68 -0.68 1.36 0 0 Z " fill="#DA755C" transform="translate(251,33)"/>
<path d="M0 0 C0.66 0.99 1.32 1.98 2 3 C2.66 2.34 3.32 1.68 4 1 C3.53199289 5.05606165 3.12046792 8.46588679 1 12 C-1.23551759 8.64672361 -1.17283528 8.09256343 -0.625 4.3125 C-0.51414063 3.50425781 -0.40328125 2.69601562 -0.2890625 1.86328125 C-0.19367188 1.24839844 -0.09828125 0.63351562 0 0 Z " fill="#D0CECE" transform="translate(255,319)"/>
<path d="M0 0 C0.66 0 1.32 0 2 0 C1.67 2.97 1.34 5.94 1 9 C0.01 9.33 -0.98 9.66 -2 10 C-1.54177532 6.53058454 -1.10868317 3.32604951 0 0 Z " fill="#6C6868" transform="translate(211,318)"/>
<path d="M0 0 C0.66 0.66 1.32 1.32 2 2 C1.625 5.125 1.625 5.125 1 8 C0.01 7.34 -0.98 6.68 -2 6 C-2 5.01 -2 4.02 -2 3 C-2.66 2.67 -3.32 2.34 -4 2 C-2.68 1.34 -1.36 0.68 0 0 Z " fill="#E5E5E5" transform="translate(232,322)"/>
</svg>
